<svg width="54" height="60" viewBox="0 0 54 60" fill="none" xmlns="http://www.w3.org/2000/svg">
<path d="M37.2226 36.2125C40.4601 33.275 42.2726 29.0875 42.2101 24.725C42.1476 20.7625 40.5601 17.025 37.7351 14.2C34.9101 11.375 31.1726 9.7875 27.2102 9.7375C23.0977 9.6875 19.2352 11.2375 16.3102 14.1125C13.3852 17 11.7852 20.8375 11.7852 24.9375C11.7852 29.275 13.6477 33.425 16.8977 36.3125C19.1477 38.3125 20.5227 41.1625 20.7477 44.225H19.3477C18.8602 44.225 18.4727 44.6125 18.4727 45.1V48.1125V52.0875V55.1C18.4727 55.5875 18.8602 55.975 19.3477 55.975H21.7352C22.1477 58.1875 24.0976 59.875 26.4226 59.875H27.5852C29.9226 59.875 31.8601 58.1875 32.2726 55.975H34.6601C35.1476 55.975 35.5351 55.5875 35.5351 55.1V52.0875V48.1125V45.1C35.5351 44.6125 35.1476 44.225 34.6601 44.225H33.2476C33.4851 41.2 34.8976 38.3125 37.2226 36.2125ZM22.8727 51.2125H20.2102V48.9875H22.8727V51.2125ZM27.5852 58.1125H26.4226C25.0601 58.1125 23.9102 57.2125 23.5352 55.9625H30.4851C30.0976 57.2125 28.9477 58.1125 27.5852 58.1125ZM31.4726 54.225H22.5102H20.2102V52.9625H23.7477C24.2352 52.9625 24.6227 52.575 24.6227 52.0875V50.975H29.3726V52.0875C29.3726 52.575 29.7601 52.9625 30.2476 52.9625H33.7851V54.225H31.4726ZM33.7851 51.2125H31.1226V48.9875H33.7851V51.2125ZM33.7851 47.2375H30.2476C29.7601 47.2375 29.3726 47.625 29.3726 48.1125V49.225H24.6227V48.1125C24.6227 47.625 24.2352 47.2375 23.7477 47.2375H20.2102V45.975H33.7726V47.2375H33.7851ZM36.0476 34.9125C33.3601 37.35 31.7351 40.7 31.4976 44.225H22.4977C22.2727 40.6625 20.6852 37.35 18.0602 35.0125C15.1852 32.4625 13.5352 28.7875 13.5352 24.95C13.5352 21.325 14.9602 17.9125 17.5477 15.3625C20.1352 12.8125 23.5602 11.4375 27.1976 11.4875C34.4101 11.5875 40.3601 17.5375 40.4601 24.75C40.5101 28.6125 38.9101 32.3125 36.0476 34.9125Z" fill="#1F3338"/>
<path d="M28.175 25.275V20.675C28.9875 20.8625 29.8 21.225 30.6375 21.725C30.875 21.875 31.1125 21.9375 31.3625 21.9375C32.1 21.9375 32.7 21.3625 32.7 20.6125C32.7 20.0375 32.3625 19.675 31.975 19.4625C30.875 18.7625 29.675 18.3125 28.2625 18.15V17.625C28.2625 17.05 27.8 16.6 27.225 16.6C26.65 16.6 26.175 17.05 26.175 17.625V18.125C23.175 18.3625 21.1375 20.1375 21.1375 22.7C21.1375 23.8 21.4125 24.6625 21.9625 25.375C22.775 26.4125 24.1875 27.1 26.275 27.6375V32.375C24.9625 32.1375 23.85 31.5875 22.725 30.775C22.5125 30.6125 22.225 30.5125 21.9375 30.5125C21.2 30.5125 20.625 31.0875 20.625 31.825C20.625 32.325 20.8625 32.7125 21.275 32.975C22.7375 34 24.3875 34.65 26.1875 34.85V36.3375C26.1875 36.9125 26.6625 37.3625 27.2375 37.3625C27.8125 37.3625 28.275 36.9125 28.275 36.3375V34.9C31.3125 34.6125 33.375 32.8625 33.375 30.225C33.375 27.65 31.8125 26.1875 28.175 25.275ZM26.275 24.775C25.9 24.65 25.5875 24.525 25.3125 24.4C24.2625 23.9 23.975 23.3375 23.975 22.5375C23.975 21.4875 24.7375 20.675 26.275 20.525V24.775ZM28.175 32.4625V28.1C30.025 28.675 30.55 29.325 30.55 30.375C30.55 31.5375 29.7125 32.3 28.175 32.4625Z" fill="#E26D48"/>
<path d="M1.8125 26.1C1.325 26.1 0.9375 26.4875 0.9375 26.975C0.9375 27.4625 1.325 27.85 1.8125 27.85H5.25C5.7375 27.85 6.125 27.4625 6.125 26.975C6.125 26.4875 5.7375 26.1 5.25 26.1H1.8125Z" fill="#E26D48"/>
<path d="M9.25235 8.32499C8.91484 7.98749 8.35234 7.98749 8.01484 8.32499C7.67734 8.66249 7.67734 9.22499 8.01484 9.56249L10.4398 11.9875C10.6148 12.1625 10.8398 12.25 11.0523 12.25C11.2648 12.25 11.5023 12.1625 11.6648 11.9875C12.0023 11.65 12.0023 11.0875 11.6648 10.75L9.25235 8.32499Z" fill="#E26D48"/>
<path d="M27.0899 4.45001V1.01251C27.0899 0.525012 26.7024 0.137512 26.2149 0.137512C25.7273 0.137512 25.3398 0.525012 25.3398 1.01251V4.45001C25.3398 4.93751 25.7273 5.32501 26.2149 5.32501C26.7024 5.32501 27.0899 4.92501 27.0899 4.45001Z" fill="#E26D48"/>
<path d="M44.8727 8.45001C45.2102 8.11251 45.2102 7.55001 44.8727 7.21251C44.5352 6.87501 43.9727 6.87501 43.6352 7.21251L41.2102 9.63751C40.8727 9.97501 40.8727 10.5375 41.2102 10.875C41.3852 11.05 41.6102 11.1375 41.8227 11.1375C42.0352 11.1375 42.2727 11.05 42.4352 10.875L44.8727 8.45001Z" fill="#E26D48"/>
<path d="M48.75 24.5375C48.2625 24.5375 47.875 24.925 47.875 25.4125C47.875 25.9 48.2625 26.2875 48.75 26.2875H52.1875C52.675 26.2875 53.0625 25.9 53.0625 25.4125C53.0625 24.925 52.675 24.5375 52.1875 24.5375H48.75Z" fill="#E26D48"/>
</svg>
