<svg width="24" height="24" viewBox="0 0 24 24" fill="none" xmlns="http://www.w3.org/2000/svg">
<path d="M21.7503 9.70017C22.1323 9.33917 22.4913 8.97317 22.8233 8.60717C23.3936 7.97475 23.3936 7.0136 22.8233 6.38117C20.2003 3.50017 16.0313 0.684172 12.0003 0.751172C7.96932 0.684172 3.80032 3.50017 1.17932 6.38517C0.609499 7.01778 0.609499 7.97857 1.17932 8.61117C3.12431 10.7891 5.54871 12.4854 8.26132 13.5662" stroke="#243B41" stroke-width="1.5" stroke-linecap="round" stroke-linejoin="round"/>
<path d="M10.5005 10.9371C8.60369 10.1081 7.73777 7.89863 8.56621 6.00156C9.39464 4.10449 11.6039 3.2379 13.5012 4.06575C15.3985 4.8936 16.2658 7.10256 15.4385 9.00013" stroke="#243B41" stroke-width="1.5" stroke-linecap="round" stroke-linejoin="round"/>
<path fill-rule="evenodd" clip-rule="evenodd" d="M17.25 23.25C20.5637 23.25 23.25 20.5637 23.25 17.25C23.25 13.9363 20.5637 11.25 17.25 11.25C13.9363 11.25 11.25 13.9363 11.25 17.25C11.25 20.5637 13.9363 23.25 17.25 23.25Z" stroke="#243B41" stroke-width="1.5" stroke-linecap="round" stroke-linejoin="round"/>
<path d="M19.9247 15.5049L17.0197 19.3789C16.889 19.5527 16.6893 19.6613 16.4724 19.6767C16.2555 19.692 16.0425 19.6126 15.8887 19.4589L14.3887 17.9589" stroke="#243B41" stroke-width="1.5" stroke-linecap="round" stroke-linejoin="round"/>
</svg>
