<svg width="50" height="50" viewBox="0 0 50 50" fill="none" xmlns="http://www.w3.org/2000/svg">
<path d="M34.225 9.6875C34.225 14.9172 29.9172 19.225 24.6875 19.225C19.4578 19.225 15.15 14.9172 15.15 9.6875C15.15 4.45784 19.4578 0.15 24.6875 0.15C29.9172 0.15 34.225 4.45784 34.225 9.6875ZM32.4417 9.6875C32.4417 5.43799 28.937 1.93333 24.6875 1.93333C20.438 1.93333 16.9333 5.43799 16.9333 9.6875C16.9333 13.937 20.438 17.4417 24.6875 17.4417C28.937 17.4417 32.4417 13.937 32.4417 9.6875Z" fill="#E26D48" stroke="white" stroke-width="0.3"/>
<path d="M10.7381 37.5712L9.72939 40.4966L0.544698 37.231L7.66329 17.8354L16.8504 21.1019L15.9469 23.6116L15.8987 23.7455H16.041H20.9369H20.9783L21.0076 23.7162L21.2159 23.5079L21.2161 23.5081L21.2215 23.5018C22.3418 22.1778 24.071 21.6698 25.6987 22.1785L25.7008 22.1791L31.1175 23.7416L31.1311 23.7455H31.1452H34.0619H34.2041L34.1559 23.6116L33.2524 21.1019L42.4391 17.8355L49.4544 37.2308L40.2576 40.5008L39.568 39.1216L39.5232 39.0322L39.4338 39.0769L37.3505 40.1186L37.2729 40.1574L37.3003 40.2396C37.4056 40.5555 37.5035 40.8522 37.5035 41.1455C37.5035 41.9532 37.201 42.6566 36.6995 43.1581C36.2014 43.6562 35.4982 43.8603 34.8787 43.9635L34.7952 43.9775V44.0622C34.7952 44.7586 34.4981 45.3586 33.9935 45.8641C33.1813 46.5736 32.1755 46.871 31.1739 46.5706L31.0736 46.5405L31.0482 46.6421C30.9495 47.0366 30.753 47.3338 30.4495 47.6373C29.4435 48.6432 27.7306 48.7434 26.6252 47.8389L26.5129 47.7471L26.467 47.8847C26.3713 48.1717 26.1804 48.3647 25.9703 48.5748C25.4688 49.0763 24.7653 49.3788 23.9577 49.3788C23.15 49.3788 22.4466 49.0763 21.9451 48.5748L10.9034 37.5331L10.7903 37.42L10.7381 37.5712ZM41.3435 20.2785L41.3096 20.1837L41.215 20.2182L35.7984 22.1974L35.7051 22.2315L35.7385 22.325L41.3635 38.0542L41.3974 38.149L41.492 38.1144L46.9087 36.1353L47.002 36.1012L46.9685 36.0077L41.3435 20.2785ZM3.03019 36.0077L2.99675 36.1012L3.09003 36.1353L8.5067 38.1144L8.60127 38.149L8.63518 38.0542L14.2602 22.325L14.2936 22.2315L14.2003 22.1974L8.78367 20.2182L8.68909 20.1837L8.65519 20.2785L3.03019 36.0077ZM24.9987 38.1626L30.3446 43.6114L30.3453 43.612L31.2828 44.5496L31.2878 44.5546L31.2935 44.5588C31.5119 44.7227 31.7648 44.8376 32.0117 44.8521C32.2639 44.8669 32.5056 44.7761 32.6835 44.5388C33.0181 44.0928 33.0304 43.5143 32.6742 43.1581L26.3908 36.8747L27.7077 35.5578L33.9911 41.8412L33.9962 41.8462L34.0019 41.8505C34.4432 42.1815 35.0143 42.1971 35.3713 41.8523C35.4945 41.7858 35.559 41.6863 35.5903 41.5766C35.6202 41.4719 35.6202 41.3558 35.6202 41.2566V41.2497V41.245C35.6202 41.0362 35.6202 40.7916 35.3826 40.554L35.3821 40.5535L26.9446 32.2202L26.9058 32.1818L26.8525 32.1938L19.8733 33.7563L19.8614 33.7589L19.8505 33.7644C19.7623 33.8085 19.6463 33.8329 19.5207 33.8455C19.3961 33.8579 19.2707 33.858 19.166 33.858C18.4688 33.858 17.8656 33.5606 17.2474 33.149C16.5383 32.5397 16.1371 31.834 16.0362 30.9261C15.9348 30.0127 16.1371 29.2082 16.7414 28.5029C16.7416 28.5027 16.7418 28.5025 16.7419 28.5023L19.1368 25.7951L19.2838 25.6288H19.0619H15.2077H15.1375L15.1136 25.6948L11.572 35.4865L11.5504 35.5463L11.5953 35.5912L23.262 47.2579C23.4412 47.4371 23.7035 47.5215 23.9577 47.5215C24.2119 47.5215 24.4741 47.4371 24.6534 47.2579L24.6649 47.2464L24.6721 47.2319L24.6778 47.2205C24.7777 47.0208 24.891 46.7943 24.891 46.5622V46.5575C24.891 46.3487 24.891 46.1041 24.6534 45.8665L20.8699 42.083L22.1869 40.7661L27.7411 46.3204C27.9204 46.4996 28.1826 46.5841 28.4369 46.5841C28.6911 46.5841 28.9533 46.4996 29.1326 46.3204L29.144 46.3089L29.1513 46.2944L29.157 46.283C29.2569 46.0833 29.3702 45.8568 29.3702 45.6247V45.62C29.3702 45.4112 29.3702 45.1666 29.1326 44.929L23.6824 39.4788L24.9987 38.1626ZM36.1786 38.6121L36.2322 38.6656L36.2982 38.6286L38.9024 37.1703L38.9763 37.1288L38.9476 37.0491L34.7809 25.4866L34.7571 25.4205H34.6868H30.6389L25.0278 23.758L25.0278 23.7579L25.0236 23.7568C24.1589 23.5407 23.1807 23.756 22.5276 24.5179L18.1526 29.6221L18.152 29.6216L18.1453 29.6317C17.9283 29.9573 17.816 30.2887 17.816 30.6247C17.816 30.9602 17.9292 31.3092 18.2772 31.5412C18.6035 31.7587 19.0499 31.8774 19.401 31.7629L27.2946 29.9972L32.6981 30.8128L32.4151 32.6998L30.2212 32.4006L29.9271 32.3605L30.137 32.5704L36.1786 38.6121Z" fill="black" stroke="white" stroke-width="0.2"/>
<path d="M22.2408 9.24552C21.9748 8.92806 21.5017 8.88639 21.1843 9.15246C20.8668 9.41852 20.8251 9.89156 21.0912 10.209L22.2408 9.24552ZM23.5708 12L22.996 12.4818C23.1331 12.6454 23.3335 12.7428 23.547 12.7496C23.7604 12.7564 23.9666 12.6719 24.1139 12.5172L23.5708 12ZM28.8758 7.51724C29.1614 7.21729 29.1499 6.74256 28.8499 6.4569C28.55 6.17123 28.0752 6.18281 27.7896 6.48276L28.8758 7.51724ZM21.0912 10.209L22.996 12.4818L24.1456 11.5182L22.2408 9.24552L21.0912 10.209ZM24.1139 12.5172L28.8758 7.51724L27.7896 6.48276L23.0277 11.4828L24.1139 12.5172Z" fill="#E26D48"/>
</svg>
