<svg width="64" height="64" viewBox="0 0 64 64" fill="none" xmlns="http://www.w3.org/2000/svg">
<path d="M56 56H37C35.976 56 34.912 55.494 33.784 54.958C32.792 54.486 31.768 54 31 54H27C26.448 54 26 53.552 26 53C26 52.448 26.448 52 27 52H31C32.218 52 33.45 52.586 34.642 53.152C35.52 53.568 36.426 54 37 54H56C57.102 54 58 53.104 58 52C58 50.896 57.102 50 56 50C55.448 50 55 49.552 55 49C55 48.448 55.448 48 56 48H57C58.102 48 59 47.104 59 46C59 44.896 58.102 44 57 44C56.448 44 56 43.552 56 43C56 42.448 56.448 42 57 42H58C59.102 42 60 41.104 60 40C60 38.896 59.102 38 58 38H57C56.448 38 56 37.552 56 37C56 36.448 56.448 36 57 36C58.102 36 59 35.104 59 34C59 32.896 58.102 32 57 32H37.992C37.684 32 37.394 31.858 37.204 31.616C37.014 31.374 36.948 31.058 37.022 30.758C37.03 30.718 37.992 26.808 37.992 22.132C37.992 16.93 35.914 16.142 33.998 16.022V23C33.998 23.154 33.962 23.308 33.892 23.448L29.742 31.746C29.494 32.238 28.896 32.442 28.4 32.194C27.906 31.946 27.706 31.346 27.952 30.852L32 22.764V15C32 14.448 32.448 14 33 14C35.092 14 39.994 14 39.994 22.13C39.994 25.488 39.536 28.418 39.23 30H57C59.206 30 61 31.794 61 34C61 34.978 60.646 35.876 60.06 36.572C61.222 37.274 62 38.546 62 40C62 41.454 61.222 42.726 60.06 43.428C60.646 44.124 61 45.022 61 46C61 47.454 60.222 48.726 59.06 49.428C59.646 50.124 60 51.022 60 52C60 54.206 58.206 56 56 56Z" fill="#243B41"/>
<path d="M27.102 56H20V54H26V36H20V34H27.102C27.656 34 28 34.414 28 34.964V54.964C28 55.52 27.656 56 27.102 56Z" fill="#243B41"/>
<path d="M3.10156 60C2.54956 60 2.10156 59.552 2.10156 59C2.10156 58.448 2.54956 58 3.10156 58H19.9996V36H3.10156C2.54956 36 2.10156 35.552 2.10156 35C2.10156 34.448 2.54956 34 3.10156 34H21.1016C21.6556 34 21.9996 34.414 21.9996 34.964V58.964C21.9996 59.52 21.6556 60 21.1016 60H3.10156Z" fill="#243B41"/>
<path d="M58 44H48C45.794 44 44 42.206 44 40C44 37.794 45.794 36 48 36H58C60.206 36 62 37.794 62 40C62 42.206 60.206 44 58 44ZM48 38C46.898 38 46 38.896 46 40C46 41.104 46.898 42 48 42H58C59.102 42 60 41.104 60 40C60 38.896 59.102 38 58 38H48Z" fill="#243B41"/>
<path d="M56 56H50C47.794 56 46 54.206 46 52C46 49.794 47.794 48 50 48H56C58.206 48 60 49.794 60 52C60 54.206 58.206 56 56 56ZM50 50C48.898 50 48 50.896 48 52C48 53.104 48.898 54 50 54H56C57.102 54 58 53.104 58 52C58 50.896 57.102 50 56 50H50Z" fill="#243B41"/>
<path d="M57 50H49C46.794 50 45 48.206 45 46C45 43.794 46.794 42 49 42H57C59.206 42 61 43.794 61 46C61 48.206 59.206 50 57 50ZM49 44C47.898 44 47 44.896 47 46C47 47.104 47.898 48 49 48H57C58.102 48 59 47.104 59 46C59 44.896 58.102 44 57 44H49Z" fill="#243B41"/>
<path d="M57 38H49C46.794 38 45 36.206 45 34C45 31.794 46.794 30 49 30H57C59.206 30 61 31.794 61 34C61 36.206 59.206 38 57 38ZM49 32C47.898 32 47 32.896 47 34C47 35.104 47.898 36 49 36H57C58.102 36 59 35.104 59 34C59 32.896 58.102 32 57 32H49Z" fill="#243B41"/>
<path d="M35.2154 46.1081C34.7614 46.1081 34.3494 45.7981 34.2434 45.3341C34.1174 44.7961 34.4514 44.2601 34.9894 44.1321C37.3094 43.5901 38.9954 41.6001 39.5014 38.8101C40.0134 35.9821 39.1354 33.0961 37.4134 31.9461C36.9534 31.6401 36.8294 31.0181 37.1354 30.5601C37.4394 30.1001 38.0594 29.9761 38.5214 30.2821C40.9534 31.9041 42.1374 35.4741 41.4694 39.1661C40.8174 42.7661 38.5654 45.3501 35.4454 46.0801C35.3674 46.1001 35.2914 46.1081 35.2154 46.1081Z" fill="#243B41"/>
<path d="M40.2908 11.718C40.6008 11.718 40.9048 11.576 41.1008 11.306L43.4528 8.06998C43.7788 7.62198 43.6788 6.99798 43.2328 6.67398C42.7848 6.34998 42.1588 6.44598 41.8368 6.89398L39.4848 10.13C39.1588 10.578 39.2588 11.202 39.7048 11.526C39.8808 11.656 40.0848 11.718 40.2908 11.718Z" fill="#E26D48"/>
<path d="M42.6094 15.5284C42.7474 15.9524 43.1394 16.2204 43.5614 16.2204C43.6634 16.2204 43.7674 16.2044 43.8694 16.1724L47.6734 14.9364C48.1994 14.7664 48.4874 14.2024 48.3154 13.6764C48.1434 13.1484 47.5774 12.8624 47.0554 13.0344L43.2514 14.2704C42.7274 14.4384 42.4394 15.0024 42.6094 15.5284Z" fill="#E26D48"/>
<path d="M27.3925 20.4723C27.2225 19.9443 26.6565 19.6583 26.1325 19.8303L22.3285 21.0663C21.8025 21.2363 21.5145 21.8003 21.6865 22.3263C21.8245 22.7503 22.2165 23.0183 22.6385 23.0183C22.7405 23.0183 22.8445 23.0023 22.9465 22.9703L26.7505 21.7343C27.2745 21.5623 27.5625 20.9983 27.3925 20.4723Z" fill="#E26D48"/>
<path d="M47.6734 21.0661L43.8694 19.8301C43.3434 19.6581 42.7814 19.9461 42.6094 20.4721C42.4394 20.9981 42.7274 21.5621 43.2514 21.7321L47.0554 22.9681C47.1574 23.0021 47.2614 23.0161 47.3634 23.0161C47.7854 23.0161 48.1774 22.7481 48.3154 22.3241C48.4874 21.8001 48.1994 21.2361 47.6734 21.0661Z" fill="#E26D48"/>
<path d="M22.3285 14.9335L26.1325 16.1695C26.2345 16.2035 26.3385 16.2175 26.4405 16.2175C26.8625 16.2175 27.2545 15.9495 27.3925 15.5255C27.5625 14.9995 27.2745 14.4355 26.7505 14.2655L22.9465 13.0295C22.4225 12.8595 21.8585 13.1455 21.6865 13.6715C21.5145 14.1995 21.8025 14.7635 22.3285 14.9335Z" fill="#E26D48"/>
<path d="M28.1672 6.89455C27.8432 6.44455 27.2172 6.35055 26.7712 6.67455C26.3252 6.99855 26.2252 7.62455 26.5512 8.07055L28.9032 11.3065C29.0992 11.5765 29.4032 11.7186 29.7132 11.7186C29.9172 11.7186 30.1232 11.6565 30.2992 11.5265C30.7452 11.2025 30.8452 10.5766 30.5192 10.1306L28.1672 6.89455Z" fill="#E26D48"/>
<path d="M35 4C34.448 4 34 4.448 34 5V9C34 9.552 34.448 10 35 10C35.552 10 36 9.552 36 9V5C36 4.448 35.552 4 35 4Z" fill="#E26D48"/>
</svg>
