<svg width="50" height="50" viewBox="0 0 50 50" fill="none" xmlns="http://www.w3.org/2000/svg">
<path d="M3.125 9.37527H6.29609C6.48754 11.0939 7.3059 12.6817 8.59461 13.8349C9.88333 14.988 11.5519 15.6255 13.2812 15.6255C15.0106 15.6255 16.6792 14.988 17.9679 13.8349C19.2566 12.6817 20.075 11.0939 20.2664 9.37527H46.875C47.0822 9.37527 47.2809 9.29296 47.4274 9.14644C47.5739 8.99993 47.6562 8.80122 47.6562 8.59402C47.6562 8.38682 47.5739 8.1881 47.4274 8.04159C47.2809 7.89508 47.0822 7.81277 46.875 7.81277H20.2664C20.075 6.09409 19.2566 4.50632 17.9679 3.35318C16.6792 2.20005 15.0106 1.5625 13.2812 1.5625C11.5519 1.5625 9.88333 2.20005 8.59461 3.35318C7.3059 4.50632 6.48754 6.09409 6.29609 7.81277H3.125C2.9178 7.81277 2.71909 7.89508 2.57257 8.04159C2.42606 8.1881 2.34375 8.38682 2.34375 8.59402C2.34375 8.80122 2.42606 8.99993 2.57257 9.14644C2.71909 9.29296 2.9178 9.37527 3.125 9.37527ZM13.2812 3.12527C14.3629 3.12527 15.4202 3.446 16.3195 4.04692C17.2189 4.64783 17.9198 5.50193 18.3337 6.50122C18.7476 7.5005 18.8559 8.60008 18.6449 9.66092C18.4339 10.7218 17.9131 11.6962 17.1482 12.461C16.3834 13.2258 15.409 13.7467 14.3482 13.9577C13.2873 14.1687 12.1877 14.0604 11.1884 13.6465C10.1892 13.2326 9.33506 12.5316 8.73415 11.6323C8.13324 10.733 7.8125 9.67563 7.8125 8.59402C7.81426 7.14415 8.39099 5.75418 9.4162 4.72897C10.4414 3.70376 11.8314 3.12702 13.2812 3.12527Z" fill="black"/>
<path d="M46.875 24.219H43.7039C43.5125 22.5003 42.6941 20.9126 41.4054 19.7594C40.1167 18.6063 38.4481 17.9688 36.7188 17.9688C34.9894 17.9688 33.3208 18.6063 32.0321 19.7594C30.7434 20.9126 29.925 22.5003 29.7336 24.219H3.125C2.9178 24.219 2.71909 24.3013 2.57257 24.4478C2.42606 24.5944 2.34375 24.7931 2.34375 25.0003C2.34375 25.2075 2.42606 25.4062 2.57257 25.5527C2.71909 25.6992 2.9178 25.7815 3.125 25.7815H29.7336C29.925 27.5002 30.7434 29.088 32.0321 30.2411C33.3208 31.3942 34.9894 32.0318 36.7188 32.0318C38.4481 32.0318 40.1167 31.3942 41.4054 30.2411C42.6941 29.088 43.5125 27.5002 43.7039 25.7815H46.875C47.0822 25.7815 47.2809 25.6992 47.4274 25.5527C47.5739 25.4062 47.6562 25.2075 47.6562 25.0003C47.6562 24.7931 47.5739 24.5944 47.4274 24.4478C47.2809 24.3013 47.0822 24.219 46.875 24.219ZM36.7188 30.469C35.6371 30.469 34.5798 30.1483 33.6805 29.5474C32.7811 28.9465 32.0802 28.0924 31.6663 27.0931C31.2524 26.0938 31.1441 24.9942 31.3551 23.9334C31.5661 22.8725 32.0869 21.8981 32.8518 21.1333C33.6166 20.3685 34.591 19.8476 35.6519 19.6366C36.7127 19.4256 37.8123 19.5339 38.8116 19.9478C39.8108 20.3617 40.6649 21.0627 41.2659 21.962C41.8668 22.8613 42.1875 23.9187 42.1875 25.0003C42.1857 26.4501 41.609 27.8401 40.5838 28.8653C39.5586 29.8905 38.1686 30.4673 36.7188 30.469Z" fill="black"/>
<path d="M46.875 40.6253H26.5164C26.325 38.9066 25.5066 37.3188 24.2179 36.1657C22.9292 35.0125 21.2606 34.375 19.5312 34.375C17.8019 34.375 16.1333 35.0125 14.8446 36.1657C13.5559 37.3188 12.7375 38.9066 12.5461 40.6253H3.125C2.9178 40.6253 2.71909 40.7076 2.57257 40.8541C2.42606 41.0006 2.34375 41.1993 2.34375 41.4065C2.34375 41.6137 2.42606 41.8124 2.57257 41.9589C2.71909 42.1055 2.9178 42.1878 3.125 42.1878H12.5461C12.7375 43.9064 13.5559 45.4942 14.8446 46.6474C16.1333 47.8005 17.8019 48.438 19.5312 48.438C21.2606 48.438 22.9292 47.8005 24.2179 46.6474C25.5066 45.4942 26.325 43.9064 26.5164 42.1878H46.875C47.0822 42.1878 47.2809 42.1055 47.4274 41.9589C47.5739 41.8124 47.6562 41.6137 47.6562 41.4065C47.6562 41.1993 47.5739 41.0006 47.4274 40.8541C47.2809 40.7076 47.0822 40.6253 46.875 40.6253ZM19.5312 46.8753C18.4496 46.8753 17.3923 46.5545 16.493 45.9536C15.5936 45.3527 14.8927 44.4986 14.4788 43.4993C14.0649 42.5 13.9566 41.4005 14.1676 40.3396C14.3786 39.2788 14.8994 38.3043 15.6643 37.5395C16.4291 36.7747 17.4035 36.2539 18.4643 36.0428C19.5252 35.8318 20.6248 35.9401 21.6241 36.3541C22.6233 36.768 23.4774 37.4689 24.0784 38.3682C24.6793 39.2676 25 40.3249 25 41.4065C24.9982 42.8564 24.4215 44.2464 23.3963 45.2716C22.3711 46.2968 20.9811 46.8735 19.5312 46.8753Z" fill="black"/>
<path d="M43.75 25C43.75 28.8833 40.602 32.0312 36.7188 32.0312C32.8355 32.0312 29.6875 28.8833 29.6875 25C29.6875 21.1167 32.8355 17.9688 36.7188 17.9688C40.602 17.9688 43.75 21.1167 43.75 25ZM31.2576 25C31.2576 28.0161 33.7026 30.4612 36.7188 30.4612C39.7349 30.4612 42.1799 28.0161 42.1799 25C42.1799 21.9839 39.7349 19.5388 36.7188 19.5388C33.7026 19.5388 31.2576 21.9839 31.2576 25Z" fill="#E26D48"/>
<path d="M20.3125 8.59375C20.3125 12.477 17.1645 15.625 13.2812 15.625C9.398 15.625 6.25 12.477 6.25 8.59375C6.25 4.7105 9.398 1.5625 13.2812 1.5625C17.1645 1.5625 20.3125 4.7105 20.3125 8.59375ZM7.8201 8.59375C7.8201 11.6099 10.2651 14.0549 13.2812 14.0549C16.2974 14.0549 18.7424 11.6099 18.7424 8.59375C18.7424 5.57764 16.2974 3.1326 13.2812 3.1326C10.2651 3.1326 7.8201 5.57764 7.8201 8.59375Z" fill="#E26D48"/>
<path d="M26.5625 41.4062C26.5625 45.2895 23.4145 48.4375 19.5312 48.4375C15.648 48.4375 12.5 45.2895 12.5 41.4062C12.5 37.523 15.648 34.375 19.5312 34.375C23.4145 34.375 26.5625 37.523 26.5625 41.4062ZM14.0701 41.4062C14.0701 44.4224 16.5151 46.8674 19.5312 46.8674C22.5474 46.8674 24.9924 44.4224 24.9924 41.4062C24.9924 38.3901 22.5474 35.9451 19.5312 35.9451C16.5151 35.9451 14.0701 38.3901 14.0701 41.4062Z" fill="#E26D48"/>
</svg>
