<svg width="25" height="24" viewBox="0 0 25 24" fill="none" xmlns="http://www.w3.org/2000/svg">
<circle cx="12.3633" cy="12" r="11.5" fill="white" stroke="#0F0F0F"/>
<path d="M12.3627 8.72252C10.549 8.72252 9.08518 10.1863 9.08518 12C9.08518 13.8138 10.549 15.2776 12.3627 15.2776C14.1765 15.2776 15.6402 13.8138 15.6402 12C15.6402 10.1863 14.1765 8.72252 12.3627 8.72252ZM12.3627 14.1302C11.1898 14.1302 10.2326 13.173 10.2326 12C10.2326 10.8271 11.1898 9.86989 12.3627 9.86989C13.5356 9.86989 14.4929 10.8271 14.4929 12C14.4929 13.173 13.5356 14.1302 12.3627 14.1302ZM15.7745 7.82443C15.351 7.82443 15.009 8.16641 15.009 8.58988C15.009 9.01336 15.351 9.35533 15.7745 9.35533C16.1979 9.35533 16.5399 9.01495 16.5399 8.58988C16.54 8.48933 16.5203 8.38973 16.4819 8.29681C16.4435 8.20388 16.3871 8.11945 16.316 8.04835C16.2449 7.97724 16.1605 7.92086 16.0675 7.88244C15.9746 7.84402 15.875 7.82431 15.7745 7.82443ZM18.7516 12C18.7516 11.1179 18.7596 10.2438 18.71 9.36332C18.6605 8.34059 18.4272 7.43292 17.6793 6.68505C16.9298 5.93558 16.0238 5.70387 15.001 5.65433C14.1189 5.60479 13.2448 5.61278 12.3643 5.61278C11.4822 5.61278 10.6081 5.60479 9.72758 5.65433C8.70485 5.70387 7.79718 5.93718 7.04931 6.68505C6.29984 7.43452 6.06812 8.34059 6.01859 9.36332C5.96905 10.2454 5.97704 11.1195 5.97704 12C5.97704 12.8806 5.96905 13.7563 6.01859 14.6368C6.06812 15.6595 6.30143 16.5672 7.04931 17.315C7.79877 18.0645 8.70485 18.2962 9.72758 18.3458C10.6097 18.3953 11.4838 18.3873 12.3643 18.3873C13.2464 18.3873 14.1205 18.3953 15.001 18.3458C16.0238 18.2962 16.9314 18.0629 17.6793 17.315C18.4288 16.5656 18.6605 15.6595 18.71 14.6368C18.7612 13.7563 18.7516 12.8821 18.7516 12ZM17.3453 15.7682C17.2287 16.059 17.088 16.2763 16.8627 16.5001C16.6374 16.7254 16.4217 16.866 16.1308 16.9827C15.2903 17.3166 13.2943 17.2415 12.3627 17.2415C11.4311 17.2415 9.43354 17.3166 8.59299 16.9843C8.30215 16.8676 8.08482 16.727 7.8611 16.5017C7.63578 16.2763 7.49515 16.0606 7.3785 15.7698C7.04611 14.9276 7.12122 12.9317 7.12122 12C7.12122 11.0684 7.04611 9.07088 7.3785 8.23033C7.49515 7.93949 7.63578 7.72216 7.8611 7.49844C8.08642 7.27472 8.30215 7.13249 8.59299 7.01584C9.43354 6.68345 11.4311 6.75856 12.3627 6.75856C13.2943 6.75856 15.2919 6.68345 16.1324 7.01584C16.4233 7.13249 16.6406 7.27312 16.8643 7.49844C17.0896 7.72376 17.2303 7.93949 17.3469 8.23033C17.6793 9.07088 17.6042 11.0684 17.6042 12C17.6042 12.9317 17.6793 14.9276 17.3453 15.7682Z" fill="#0F0F0F"/>
</svg>
