<svg width="25" height="24" viewBox="0 0 25 24" fill="none" xmlns="http://www.w3.org/2000/svg">
<circle cx="12.4375" cy="11.6875" r="11.1875" fill="#243B41" stroke="white"/>
<path d="M12.4366 8.49503C10.6701 8.49503 9.24445 9.92069 9.24445 11.6872C9.24445 13.4537 10.6701 14.8794 12.4366 14.8794C14.2031 14.8794 15.6288 13.4537 15.6288 11.6872C15.6288 9.92069 14.2031 8.49503 12.4366 8.49503ZM12.4366 13.7619C11.2942 13.7619 10.3619 12.8296 10.3619 11.6872C10.3619 10.5448 11.2942 9.61252 12.4366 9.61252C13.579 9.61252 14.5113 10.5448 14.5113 11.6872C14.5113 12.8296 13.579 13.7619 12.4366 13.7619ZM15.7595 7.62034C15.3471 7.62034 15.014 7.95341 15.014 8.36585C15.014 8.7783 15.3471 9.11136 15.7595 9.11136C16.172 9.11136 16.505 8.77985 16.505 8.36585C16.5052 8.26791 16.486 8.17091 16.4485 8.08041C16.4111 7.9899 16.3562 7.90767 16.287 7.83842C16.2177 7.76917 16.1355 7.71426 16.045 7.67683C15.9545 7.63941 15.8575 7.62021 15.7595 7.62034ZM18.6591 11.6872C18.6591 10.8281 18.6669 9.97672 18.6186 9.11915C18.5704 8.12305 18.3431 7.23902 17.6148 6.51063C16.8848 5.78068 16.0023 5.555 15.0062 5.50675C14.1471 5.4585 13.2958 5.46628 12.4382 5.46628C11.579 5.46628 10.7277 5.4585 9.87012 5.50675C8.87403 5.555 7.99 5.78223 7.2616 6.51063C6.53165 7.24058 6.30597 8.12305 6.25773 9.11915C6.20948 9.97828 6.21726 10.8296 6.21726 11.6872C6.21726 12.5448 6.20948 13.3977 6.25773 14.2553C6.30597 15.2513 6.53321 16.1354 7.2616 16.8638C7.99155 17.5937 8.87403 17.8194 9.87012 17.8677C10.7293 17.9159 11.5806 17.9081 12.4382 17.9081C13.2973 17.9081 14.1487 17.9159 15.0062 17.8677C16.0023 17.8194 16.8864 17.5922 17.6148 16.8638C18.3447 16.1338 18.5704 15.2513 18.6186 14.2553C18.6684 13.3977 18.6591 12.5463 18.6591 11.6872ZM17.2895 15.3572C17.1758 15.6404 17.0389 15.8521 16.8194 16.07C16.6 16.2895 16.3899 16.4264 16.1066 16.54C15.2879 16.8653 13.344 16.7922 12.4366 16.7922C11.5292 16.7922 9.58375 16.8653 8.76508 16.5416C8.48182 16.428 8.27015 16.291 8.05225 16.0716C7.8328 15.8521 7.69584 15.642 7.58222 15.3587C7.25849 14.5385 7.33164 12.5946 7.33164 11.6872C7.33164 10.7798 7.25849 8.83433 7.58222 8.01566C7.69584 7.7324 7.8328 7.52073 8.05225 7.30283C8.2717 7.08494 8.48182 6.94642 8.76508 6.8328C9.58375 6.50907 11.5292 6.58222 12.4366 6.58222C13.344 6.58222 15.2895 6.50907 16.1082 6.8328C16.3914 6.94642 16.6031 7.08338 16.821 7.30283C17.0404 7.52228 17.1774 7.7324 17.291 8.01566C17.6148 8.83433 17.5416 10.7798 17.5416 11.6872C17.5416 12.5946 17.6148 14.5385 17.2895 15.3572Z" fill="white"/>
</svg>
