<svg width="616" height="460" viewBox="0 0 616 460" fill="none" xmlns="http://www.w3.org/2000/svg">
<g clip-path="url(#clip0)">
<path d="M640.953 580.513L647.783 552.235C648.054 550.981 647.958 549.756 647.678 548.545L623.095 470.744L645.743 436.909L645.15 429.352L621.361 465.127L601.669 402.56C613.198 408.23 631.319 413.177 644.323 416.471L643.922 411.365C625.633 406.637 608.015 401.034 599.703 396.344L577.83 327.168C596.609 319.322 616.824 310.953 635.435 303.327L635.227 300.672C632.537 301.705 630.031 302.724 627.358 303.961L610.609 234.176C612.429 233.828 614.264 233.684 616.084 233.335L630.149 233.669L629.956 231.218L629.773 231.233L629.956 231.218L629.571 226.317C600.925 230.827 571.729 235.381 560.044 237.121L547.127 169.09C546.918 166.435 545.075 147.675 543.51 125.399L591.241 121.65C591.425 121.635 591.425 121.635 591.608 121.621L619.868 107.483L619.659 104.828L590.865 119.213L543.134 122.963C541.457 99.2572 539.722 72.474 540.036 57.6539C540.521 30.9019 549.819 -34.1475 552.152 -49.1262L605.414 -76.5304L604.387 -89.6013L549.353 -61.2359L536.709 -83.4633C535.847 -85.0395 534.481 -85.9597 532.797 -86.2384L483.504 -95.3126C482.004 -95.6057 480.551 -95.2861 479.346 -94.164L449.686 -69.6411L366.722 -67.6452L313.089 -134.327C311.467 -138.515 305.162 -155.281 295.646 -180.015L283.897 -179.092C290.385 -162.34 295.499 -148.974 298.775 -140.19C298.448 -137.287 297.971 -133.962 297.525 -130.228L274.05 -130.439L265.507 -178.058L263.304 -177.885L271.982 -130.893L232.974 -131.322L224.201 -174.814L221.998 -174.641L230.603 -130.93L209.135 -122.052C208.951 -122.037 208.784 -121.819 208.784 -121.819L187.202 -97.9304L151.182 -109.691L152.767 -120.09C152.734 -120.499 152.718 -120.703 152.503 -121.097C152.303 -121.287 152.103 -121.477 151.72 -121.652L105.445 -129.936L105.262 -129.921L59.366 -126.316L42.439 -139.577L71.4609 -162.816L67.2385 -162.485L46.9305 -145.889L46.1266 -160.826L43.9237 -160.653L44.6562 -144.271L39.7887 -140.396L25.5691 -128.593L10.7792 -147.57L21.0561 -157.83C21.4072 -158.063 21.3751 -158.471 21.3431 -158.88L18.5893 -158.663L9.34967 -149.307L2.98488 -157.438L0.231152 -157.221L24.4606 -126.246L26.972 -113.086L5.51081 -85.3028L-22.0548 -52.9303L-39.0463 -130.505L-16.6584 -155.895L-19.9629 -155.635L-39.6381 -133.335L-41.9249 -143.635L-41.9409 -143.84L-46.3986 -153.559L-48.7852 -153.371L-44.0797 -142.85L-29.6228 -76.3784L-47.7777 -65.2942C-47.9614 -65.2798 -47.9452 -65.0756 -48.1128 -64.8569L-66.6206 -37.1002L-97.1306 -2.23593L-96.7296 2.86986L-80.7365 15.9981L-94.7564 27.9904L-94.5318 30.8497L-78.2537 17.036L-61.5763 3.60201L-39.0901 26.4948L-50.9623 39.9624L-73.9421 41.3564C-74.4928 41.3997 -74.9954 42.0556 -74.9473 42.6683C-74.8992 43.281 -74.3003 43.8504 -73.7496 43.8072L-50.4027 42.3843C-50.219 42.3699 -49.868 42.1368 -49.7004 41.9182L-37.4931 28.0133L-26.4336 39.4741L-39.5355 72.56C-39.5194 72.7642 -39.687 72.9829 -39.6709 73.1871C-39.6389 73.5956 -39.4392 73.7854 -39.2236 74.1794L-30.752 80.9117L-38.7245 85.2368C-39.0756 85.4699 -39.2431 85.6885 -39.3947 86.1114L-42.437 103.817L-57.9594 110.79C-58.143 110.805 -58.3106 111.023 -58.3106 111.023L-85.8834 145.657L-85.6107 149.129L-56.8651 112.965L-41.1751 105.773C-40.8239 105.54 -40.6564 105.321 -40.5049 104.898L-37.4786 86.9884L-28.6203 82.1827L0.18062 86.7017C0.547775 86.6729 0.91493 86.644 1.08247 86.4254L8.07994 79.0945C8.43105 78.8614 8.56657 78.2343 8.3509 77.8403L-1.44682 47.1696L8.1939 42.9189L34.8829 76.9892L52.2983 94.1155L-43.0354 209.076L-83.7676 167.889L-83.4948 171.361L-43.21 211.556L-15.5497 239.179L-39.0104 297.944L-59.7195 309.434L-73.4204 299.619L-73.1798 302.682L-43.2309 324.167C-43.3984 324.386 -43.3824 324.59 -43.3503 324.998C-43.3182 325.407 -43.1186 325.597 -42.903 325.991C-42.3201 326.356 -41.7693 326.313 -41.4503 325.671L-20.7073 340.481L-32.9359 361.169C-39.4112 356.335 -45.9025 351.296 -52.5614 346.477C-56.4897 343.497 -60.6015 340.532 -64.5459 337.349C-66.7097 335.669 -68.6738 334.18 -70.638 332.69L-69.1782 351.275C-64.4122 353.161 -60.7637 354.93 -58.4163 356.595C-57.8335 356.96 -57.4343 357.339 -56.8515 357.705L-66.9733 376.994L-66.5081 382.917L-58.1007 388.832C-57.5179 389.197 -56.9832 388.95 -56.6481 388.513C-56.3291 387.871 -56.5608 387.273 -56.96 386.893L-66.1499 380.423L-55.0549 359.413C-39.5573 370.936 -20.1153 385.643 1.10714 401.854L-15.7252 448.59L-63.4512 424.186L-63.2266 427.045L-60.3445 428.463L-62.6491 434.398L-62.248 439.503L-58.2288 429.53L-11.2692 453.582L17.8152 468.765C17.9988 468.75 18.0148 468.955 18.1984 468.94L46.3363 472.073L47.1995 579.477L32.3311 564.206C31.9318 563.826 31.3651 563.665 30.8464 564.117L10.9056 580.684L-54.2662 543.472L-54.0416 546.331L9.21412 582.666L-26.6536 633.98L-23.7163 633.749L11.6488 583.092L31.2545 566.962L54.5553 590.818L85.3313 625.184L88.2686 624.953L58.7064 591.93C66.0426 593.615 83.5167 597.379 100.624 601.173C104.942 602.067 109.093 603.179 113.228 604.087C113.093 604.714 113.141 605.327 113.006 605.954C112.218 612.386 111.366 618.001 110.666 623.194L123.149 622.213C123.133 622.009 123.101 621.6 123.085 621.396C123.228 618.508 123.393 613.563 124.149 606.723C134.67 608.979 142.389 610.838 142.94 610.795C143.874 610.927 156.654 611.362 171.492 609.785L179.325 617.801L182.262 617.57L174.245 609.569C184.861 608.324 196.147 606.205 204.702 602.245C206.34 606.637 208.162 611.015 209.8 615.407L221.916 614.455C219.815 608.866 217.514 603.088 215.412 597.499C227.694 591.603 258.659 576.635 264.605 574.73C266.225 574.192 278.468 570.148 297.176 563.746C299.881 562.917 302.938 561.855 305.995 560.793L320.132 606.74L324.722 606.38L310.32 559.426C377.8 536.659 503.94 494.077 519.655 489.555C520.104 495.274 520.386 501.211 520.851 507.134C521.614 519.198 522.352 528.592 522.257 532.093C522.274 532.297 522.29 532.502 522.322 532.91C522.899 540.262 529.997 564.775 537.892 590.047L542.482 589.686C534.091 562.809 526.778 537.903 526.712 532.36C526.606 528.669 526.036 519.056 525.273 506.992C524.856 501.682 524.558 495.54 524.045 489.005C537.965 487.5 595.784 480.493 613.727 478.467L637.055 552.05L631.899 573.416L607.103 584.61L614.263 584.048L631.205 576.347L629.683 582.837L641.065 581.943L640.953 580.513ZM544.963 480.17L530.254 424.609L548.108 419.097L559.032 452.35C559.248 452.745 559.647 453.124 560.014 453.095L579.602 453.201L583.876 462.934L571.156 470.303C570.621 470.551 570.486 471.178 570.518 471.586L571.669 476.839C562.538 478.173 553.024 479.331 544.963 480.17ZM611.761 472.251C603.899 473.28 589.261 475.046 573.888 476.87L572.985 472.42L585.873 464.832C586.407 464.585 586.527 463.753 586.295 463.155L581.142 451.641C580.927 451.247 580.527 450.868 580.16 450.896L560.572 450.791L549.632 417.333C549.4 416.735 548.817 416.37 548.283 416.617L528.442 422.697C527.907 422.944 527.572 423.381 527.62 423.994L527.636 424.198L542.592 480.561C533.996 481.647 527.036 482.4 523.197 482.907C521.533 454.679 519.869 421.726 522.205 416.2C525.299 408.559 552.214 365.552 569.485 338.509L611.761 472.251ZM625.035 304.966C609.114 311.559 592.474 318.414 576.903 324.775L573.946 315.349L560.413 241.818C569.36 240.499 587.606 237.627 608.055 234.583L625.035 304.966ZM532.306 175.597C536.003 177.978 538.176 182.123 539.423 188.6L563.259 318.038C563.275 318.242 563.307 318.65 563.507 318.84L566.712 329.068C538.811 340.713 516.106 350.305 511.11 352.547L498.434 308.745C498.202 308.147 497.803 307.767 497.252 307.81L445.665 311.863L442.329 269.382C442.313 269.178 442.297 268.974 442.097 268.784L406.359 220.629L410.556 217.628C432.262 202.361 455.493 190.056 479.531 180.975C506.707 171.854 523.931 170.09 532.306 175.597ZM220.3 417.515L192.428 420.115C192.428 420.115 192.428 420.116 192.412 419.911C234.596 354.95 259.797 315.982 270.813 298.677L297.249 317.767L274.954 377.261C274.97 377.465 274.803 377.684 274.819 377.888C274.851 378.297 275.066 378.691 275.45 378.866C276.032 379.231 276.735 378.765 276.87 378.138L310.592 287.744L359.931 271.539L384.475 292.421L365.824 381.837L331.33 373.038C330.763 372.877 330.061 373.344 329.925 373.971C329.941 374.175 329.941 374.175 329.957 374.379C330.006 374.992 330.405 375.371 330.788 375.547L365.481 384.535L367.711 412.923L322.794 407.82L220.3 417.515ZM176.163 488.178C185.256 472.257 199.991 450.551 210.098 435.783C210.114 435.988 210.114 435.988 210.314 436.177L217.03 444.075L213.082 473.771L187.627 493.031L176.163 488.178ZM186.502 495.175L183.267 531.595C179.059 527.405 172.903 521.929 165.365 515.329C168.434 505.019 171.616 496.138 174.854 490.336L186.502 495.175ZM173.576 488.176C170.154 493.993 166.805 503.092 163.569 513.621C159.425 510.247 155.065 506.48 150.123 502.348C159.827 477.748 172.86 450.832 190.785 422.711L217.923 420.168C211.453 429.512 186.395 465.592 173.576 488.176ZM176.465 423.835C161.237 448.663 149.632 472.59 140.669 494.87C131.599 487.569 121.546 479.522 110.711 470.921L142.239 425.496L176.465 423.835ZM118.071 491.714L112.87 521.918L101.199 519.136L107.451 483.506C111.18 486.296 114.725 489.099 118.071 491.714ZM108.931 469.416C93.1853 457.091 75.875 443.655 57.3992 429.489L139.286 425.523L108.931 469.416ZM14.6244 -6.90426L43.1723 24.965L9.25429 39.9588L-6.96515 19.2451L14.6244 -6.90426ZM-8.59419 17.3182L-17.8339 5.50891L-11.8738 -0.918514C-11.7063 -1.13717 -11.5548 -1.56006 -11.5869 -1.96852C-11.619 -2.37699 -11.8186 -2.5668 -12.0342 -2.96084L-32.9537 -20.0174L-13.3248 -38.2041L13.0113 -8.62698L-8.59419 17.3182ZM70.5153 15.6251C70.6989 15.6106 70.8664 15.392 71.0339 15.1733L84.0611 -4.75519L110.34 21.744C110.54 21.9338 110.923 22.1092 111.29 22.0804C111.657 22.0516 111.825 21.8329 111.992 21.6143L122.857 4.73243L187.865 72.7813C188.065 72.9711 188.448 73.1465 188.632 73.1321L216.536 70.9403L246.343 116.479C246.359 116.683 246.542 116.668 246.742 116.858L267.988 131.012L274.358 153.322L270.28 176.657L261.477 179.814L219.25 194.844L128.955 108.232L71.2159 52.7641L47.3234 26.0774L70.5153 15.6251ZM256.834 271.212L316.081 240.05L321.778 253.781L271.109 278.927C270.223 279.408 269.537 280.078 268.867 280.952C268.867 280.952 267.559 283.11 264.926 287.221L256.834 271.212ZM263.251 289.408C252.872 305.429 227.369 345.243 183.541 412.799C181.73 415.613 179.92 418.427 178.109 421.24L144.066 422.887L242.454 280.972L254.895 272.392L263.251 289.408ZM261.151 182.717L271.579 214.365L237.934 232.831L220.544 197.209L261.151 182.717ZM190.336 210.061L164.76 183.096L181.793 162.442L216.744 195.863L190.336 210.061ZM324.777 186.144L301.131 197.865L291.321 176.443L312.86 144.955L324.777 186.144ZM314.568 143.176L335.262 136.208C334.911 136.441 334.76 136.864 334.792 137.273L334.808 137.477L345.048 176.127L326.732 185.169L314.568 143.176ZM289.381 177.623L299.191 199.045L273.519 213.186L263.306 181.931L271.39 179.036L289.381 177.623ZM300.102 201.234L309.043 223.341L248.495 254.4L238.829 234.816L300.102 201.234ZM310.153 225.72L315.17 237.861L255.94 269.227L249.789 256.765L310.153 225.72ZM318.02 238.87L435.078 177.069L438.386 186.262C426.686 192.524 415.235 199.588 404.199 207.236L377.41 225.985L323.717 252.602L318.02 238.87ZM317.11 236.681L312.276 224.526L430.363 164.083L434.334 174.662L317.11 236.681ZM311.181 222.351L302.241 200.244L421.694 140.721L429.452 161.894L311.181 222.351ZM423.649 139.746L490.166 104.724C495.182 112.139 498.68 119.057 500.83 125.258L431.392 160.714L423.649 139.746ZM422.722 137.352L412.614 109.789L466.152 74.1429L486.844 100.054C487.475 101.032 488.09 101.805 488.721 102.783L422.722 137.352ZM420.767 138.328L406.897 145.171L398.049 114.837L410.643 110.56L420.767 138.328ZM404.774 146.366L382.381 157.577L374.13 123.086L395.91 115.827L404.774 146.366ZM380.425 158.553L347.186 175.137L337.162 136.881C336.931 136.283 336.547 136.107 336.164 135.932L372.159 123.857L380.425 158.553ZM318.318 139.183L304.898 114.14L309.669 109.039C310.188 108.587 310.124 107.77 309.725 107.39C309.309 106.806 308.575 106.864 308.24 107.301L302.966 113.058C302.799 113.277 302.647 113.7 302.679 114.108C302.695 114.313 302.711 114.517 302.911 114.707L316.546 140.144L313.673 141.192L295.095 132.787L262.899 77.9842L280.845 64.245L285.725 72.2868C285.925 72.4766 286.124 72.6664 286.508 72.8418C286.875 72.813 287.058 72.7986 287.41 72.5655L300.257 62.1037C300.424 61.8851 300.608 61.8707 300.592 61.6664L349.223 116.412L351.99 128.113L318.318 139.183ZM286.818 69.7351L281.954 61.8975C281.754 61.7077 281.555 61.5178 281.171 61.3425C280.804 61.3713 280.621 61.3857 280.269 61.6188L261.453 76.0428L247.164 51.6841C247.547 51.8595 247.914 51.8307 248.266 51.5976L272.971 32.1903C273.138 31.9716 273.306 31.753 273.29 31.5487L298.628 60.1768L298.444 60.1912L286.818 69.7351ZM247.155 49.219C246.804 49.452 246.652 49.8749 246.685 50.2834L173.896 -74.4867L184.61 -90.9456L214.967 -87.7818L261.055 16.8923C261.072 17.0965 261.255 17.0821 261.271 17.2863L272.427 29.9726C272.243 29.987 272.243 29.987 272.076 30.2056L247.155 49.219ZM292.989 134.186C293.188 134.376 293.388 134.566 293.587 134.755L311.415 143.013L289.388 175.362L272.499 176.688L276.441 153.98C276.425 153.776 276.409 153.571 276.393 153.367L269.775 130.255C269.759 130.051 269.544 129.657 269.344 129.467L248.082 115.109L217.861 68.9868C217.645 68.5928 217.262 68.4174 216.894 68.4462L188.99 70.6381L124.182 2.77898L172.405 -72.3146L292.989 134.186ZM144.416 126.334L132.527 139.598L117.443 123.932L128.414 110.741L144.416 126.334ZM126.449 109.251L114.809 123.317C114.641 123.536 114.49 123.959 114.506 124.163C114.522 124.367 114.738 124.761 114.937 124.951L130.82 141.376L118.245 155.309L83.7979 121.232L109.05 92.3291L126.449 109.251ZM146.029 128.057L180.196 160.923L162.476 182.248L154.705 191.489L119.859 157.032L146.029 128.057ZM163.419 184.845L188.214 211.256L158.782 226.924L140.809 212.102L155.648 194.086L163.419 184.845ZM190.545 212.716L218.389 197.994L235.979 233.807L171.631 263.52L160.227 228.866L190.545 212.716ZM236.874 235.791L246.539 255.376L182.587 297.182L172.175 265.738L236.874 235.791ZM247.65 257.755L253.801 270.217L241.192 279.016C241.009 279.031 241.025 279.235 240.841 279.25L163.522 390.74L143.146 375.901L171.711 328.038C172.03 327.397 171.982 326.784 171.399 326.419C170.817 326.054 170.266 326.097 169.947 326.739L112.297 422.916L104.751 392.685L165.063 309.244L182.477 300.479L247.65 257.755ZM110.574 424.49L54.4529 427.254C50.7082 424.261 46.7799 421.281 42.8516 418.302L51.9771 402.79L102.795 393.661L110.574 424.49ZM142.005 377.84L162.198 392.694L141.129 423.118L114.261 424.406L142.005 377.84ZM368.187 383.706L387.245 292.409C387.397 291.986 387.165 291.388 386.782 291.212L361.239 269.381C361.039 269.192 360.656 269.016 360.305 269.249L309.881 285.745C309.513 285.774 309.362 286.197 309.194 286.416L298.374 315.623L272.337 296.914C274.651 293.444 276.127 291.068 276.948 289.77L382.379 237.514C382.563 237.499 382.914 237.266 383.081 237.047L404.268 222.232L439.823 270.401L443.224 313.698C443.272 314.311 443.871 314.88 444.421 314.837L496.375 310.756L509.003 353.945L469.18 373.718C468.997 373.732 469.013 373.937 468.829 373.951L446.705 400.348L398.863 407.394C398.496 407.423 398.328 407.641 398.161 407.86L392.338 418.386L371.515 423.721L368.371 383.691L368.187 383.706ZM440.341 185.287L432.318 163.107L501.757 127.651C503.555 134.086 504.02 140.008 502.586 145.258C499.358 158.252 486.254 165.446 475.679 169.565C463.652 174.003 451.873 179.244 440.341 185.287ZM534.664 163.288C527.95 160.116 519.026 159.379 507.341 161.119C509.99 157.212 511.888 153.158 513.02 148.754C514.135 144.146 514.469 138.982 513.884 133.891L533.729 158.429L534.664 163.288ZM532.889 133.631C533.049 135.673 533.194 137.511 533.354 139.554L466.393 56.0407L486.642 31.6406C500.714 50.879 511.878 66.0304 512.844 66.571C514.393 67.4768 523.262 69.8625 529.114 71.4578C529.624 89.7066 531.333 113.82 532.889 133.631ZM437.135 -36.5984C449.147 -20.0751 468.849 7.35172 485.197 29.6992L464.947 54.0994L417.847 -4.67055L437.135 -36.5984ZM416.234 -6.39326L376.512 -55.8792L447.496 -57.5505L436.344 -39.6187L416.234 -6.39326ZM529.108 57.2793C529.014 60.7801 529.135 64.6749 529.105 68.9926C522.303 67.061 514.935 64.9683 513.969 64.4278C512.771 63.2889 502.222 48.9111 488.166 29.8769L523.255 -12.5392L536.264 -16.2324C533.065 8.88339 529.413 39.994 529.108 57.2793ZM536.79 -18.9451L522.512 -14.9467C522.328 -14.9323 522.16 -14.7136 521.993 -14.495L514.405 -5.26834L503.652 -29.2883L541.009 -49.8948C540.205 -43.6669 538.517 -32.2323 536.79 -18.9451ZM484.299 -82.84L528.707 -74.8205L541.151 -52.7829L502.542 -31.6669L480.804 -80.305L484.299 -82.84ZM479.097 -78.527L512.714 -3.28605L486.736 28.1398C471.618 7.33965 453.162 -18.3356 438.443 -38.7561L450.082 -57.5481L451.734 -57.6779C452.836 -57.7644 453.921 -58.0552 454.959 -58.9586L479.097 -78.527ZM300.564 -136.22C302.202 -131.828 303.145 -129.231 303.345 -129.041C303.576 -128.443 303.992 -127.859 304.407 -127.275L420.896 17.694L380.252 17.5987C375.525 13.8602 312.64 -34.2173 300.933 -46.8602C293.451 -55.1086 296.101 -96.6207 299.857 -128.767C299.84 -128.971 300.008 -129.19 300.008 -129.19C300.008 -129.19 300.008 -129.19 299.992 -129.394C299.983 -131.859 300.174 -134.135 300.564 -136.22ZM360.63 33.5244C360.279 33.7575 360.127 34.1804 360.159 34.5889C360.176 34.7931 360.192 34.9973 360.391 35.1871L360.623 35.7854C358.564 37.7965 356.322 39.8221 354.264 41.8332C354.247 41.629 354.215 41.2205 354.016 41.0307L331.344 13.4262L349.617 -3.21553C362.799 7.0511 374.201 15.8136 377.945 18.8074C373.326 23.4856 367.836 28.8486 362.346 34.2116L362.147 34.0218C361.732 33.4379 361.165 33.277 360.63 33.5244ZM352.492 42.7943C352.691 42.9842 352.891 43.174 353.075 43.1596C344.306 51.4516 336.893 58.1986 334.938 59.1741C332.758 57.2904 322.185 44.9694 310.997 31.8748L329.621 15L352.492 42.7943ZM297.318 -128.157C295.123 -109.079 292.818 -81.9784 294.262 -63.5975C294.936 -55.0198 296.399 -48.148 299.21 -45.2864C305.878 -38.0014 328.179 -19.8204 347.669 -4.50096L309.384 30.152C304.497 24.3711 299.41 18.4005 295.121 13.189C294.706 12.6052 293.972 12.6628 293.637 13.1001C293.469 13.3188 293.318 13.7417 293.35 14.1501C293.366 14.3544 293.398 14.7628 293.598 14.9527C302.574 25.7552 332.097 60.6302 334.396 61.6826C334.979 62.0478 336.511 62.7494 362.084 37.931L379.216 65.5597L372.281 68.9813C371.747 69.2288 371.444 70.0746 371.675 70.6729C371.907 71.2712 372.674 71.6219 373.208 71.3744L381.38 67.2392C381.731 67.0061 381.899 66.7875 382.05 66.3646C382.202 65.9417 381.986 65.5476 381.97 65.3434L372.242 49.6682L379.065 44.8169L393.816 65.6459C394.231 66.2298 394.981 66.3763 395.316 65.939C395.835 65.4873 395.955 64.6559 395.555 64.2763L380.174 42.4694C379.758 41.8856 379.207 41.9288 378.673 42.1763L370.98 47.7124L363.992 36.3428C368.611 31.6646 374.101 26.3016 380.628 20.0351L423.124 20.1904L465.09 72.3769L411.385 108.241L354.344 127.517L351.378 115.626C351.362 115.422 351.163 115.232 351.147 115.028L263.194 15.9023L225.039 -70.0787L251.081 -79.522C251.432 -79.755 251.767 -80.1923 251.919 -80.6152L254.239 -128.677L297.318 -128.157ZM210.245 -119.673L232.248 -128.799L252.036 -128.504L249.819 -81.4778L224.128 -72.2676L216.491 -89.5455C216.275 -89.9395 215.892 -90.1149 215.509 -90.2903L186.269 -93.3364L210.245 -119.673ZM104.001 -127.151L99.8486 -111.824L77.3571 -106.564L78.3 -125.132L104.001 -127.151ZM28.4175 -111.145L49.2781 -101.892C49.8449 -101.731 50.5631 -101.993 50.6986 -102.62C50.834 -103.247 50.5863 -104.05 50.0195 -104.211L28.9593 -113.653L26.4799 -126.404L40.3484 -137.974L57.8582 -124.348L59.6389 -101.679C59.687 -101.066 60.2859 -100.496 60.8366 -100.54C61.3874 -100.583 61.89 -101.239 61.8418 -101.852L60.1253 -123.704L75.9134 -124.945L74.8833 -105.136L74.8993 -104.932C74.9314 -104.524 75.1311 -104.334 75.3307 -104.144C75.5303 -103.954 75.9135 -103.779 76.2807 -103.808L100.775 -109.431C101.143 -109.459 101.478 -109.897 101.629 -110.32L106.037 -127.105L150.261 -119.071L148.676 -108.672C148.541 -108.045 148.956 -107.461 149.523 -107.3L185.343 -95.7295L182.965 -93.0768L111.049 19.0169L85.3853 -6.70863L130.92 -76.0428C131.256 -76.4801 131.191 -77.297 130.609 -77.6622L118.161 -87.9865C117.761 -88.3662 117.027 -88.3085 116.524 -87.6525C116.189 -87.2152 116.253 -86.3983 116.852 -85.8289L128.318 -76.2494L108.518 -46.1307L95.8938 -58.7016C95.4946 -59.0812 94.7602 -59.0235 94.4252 -58.5862L66.9878 -24.5798L52.7504 -38.8734L24.4912 -67.0665L37.5682 -81.6561C38.0868 -82.1079 38.0226 -82.9248 37.6074 -83.5086C37.1921 -84.0925 36.4578 -84.0348 35.9391 -83.5831L22.6945 -68.7748L7.45895 -84.0174L28.4175 -111.145ZM83.7723 -8.43136L68.7364 -23.4842L95.3359 -56.3974L107.362 -44.3959L83.7723 -8.43136ZM6.27009 -82.6911L21.3221 -67.434L10.1201 -54.8411C9.95252 -54.6224 9.80109 -54.1996 9.81713 -53.9953L9.82076 -44.543C9.86889 -43.9303 10.2841 -43.3464 11.0185 -43.4041C11.5692 -43.4474 12.0879 -43.8991 12.2073 -44.7304L12.2518 -53.5701L23.3023 -65.7401L50.5795 -38.2919L37.2797 -21.8353C37.1122 -21.6166 36.9607 -21.1938 36.9767 -20.9895C36.9927 -20.7853 37.2084 -20.3912 37.408 -20.2014C37.8073 -19.8218 38.5576 -19.6753 39.0603 -20.3312L52.3601 -36.7878L82.6316 -6.49233L69.5885 13.232L45.4787 23.7564L-20.9444 -50.5516L6.27009 -82.6911ZM-78.8455 14.2056L-96.0363 -0.0614708L-64.6724 -35.8148L-46.1647 -63.5715L-28.712 -74.1895L-23.5146 -50.3497C-23.4985 -50.1455 -23.2989 -49.9557 -23.2989 -49.9557L-14.7863 -40.3497L-35.269 -21.274L-78.8455 14.2056ZM-59.8689 1.82396L-34.6773 -18.4436L-14.3566 -1.95645L-20.1332 4.45657L-37.5823 24.5269L-59.8689 1.82396ZM-35.9693 26.2497L-19.3578 7.27255L-9.9185 19.2716L-25.1094 37.5207L-35.9693 26.2497ZM-3.26662 47.518L6.33149 77.9989L0.187734 84.4407L-28.0464 80.0827L-37.1009 72.9852L-24.5016 40.5553L-3.26662 47.518ZM-2.52513 45.1993L-22.9937 38.5874L-8.47297 21.213L7.13157 41.153L-2.52513 45.1993ZM36.9575 75.1823L10.6998 41.9001L44.8015 26.892L68.6939 53.5787L43.5612 81.6503L36.9575 75.1823ZM55.4905 92.4263C55.0913 92.0467 54.7241 92.0755 54.1894 92.323L45.1742 83.373L70.307 55.3014L107.469 91.0149L82.2169 119.918L55.7864 93.8415C55.9379 93.4186 55.8898 92.8059 55.4905 92.4263ZM54.4621 95.795L153.381 193.442L139.028 210.598L101.317 179.654C100.734 179.289 100.183 179.332 99.6806 179.988C99.3616 180.63 99.4097 181.242 100.009 181.812L136.937 212.201L113.195 222.697L10.916 148.123L54.4621 95.795ZM125.44 265.71C125.974 265.463 126.293 264.821 126.062 264.223L120.299 244.948C120.067 244.35 119.485 243.985 118.934 244.028L104.639 247.822L98.5509 231.45L126.388 218.989L144.721 278.374L119.907 284.639L113.444 270.557L125.44 265.71ZM112.55 268.572L105.734 249.997L118.759 246.507L123.794 263.579L112.55 268.572ZM60.5388 248.409L77.3142 240.927L94.352 293.222L76.9616 299.931L60.5388 248.409ZM74.8228 300.921L51.8858 309.915L36.7392 255.827L58.5836 249.385L74.8228 300.921ZM58.9097 246.482L35.7963 253.23L16.8943 210.123L46.5988 176.76L110.673 223.511L96.9379 229.727L77.6564 238.228L58.9097 246.482ZM9.39212 149.886L44.6506 175.475L15.4488 208.181L-12.8996 176.502L9.39212 149.886ZM-40.8877 210.551L-14.2239 178.455L13.9249 209.945L-14.2253 237.226L-40.8877 210.551ZM-12.6284 238.744L15.1868 211.901L34.0407 254.395L22.6872 267.411L2.74975 251.099L-12.6284 238.744ZM-57.5718 310.909L-37.7486 299.899C-37.581 299.681 -37.3974 299.666 -37.2459 299.243L-13.9526 240.698L0.45943 252.512L-42.1062 322.024L-57.5718 310.909ZM-40.1582 323.309L2.4236 254.002L21.379 269.568L-19.399 338.323L-40.1582 323.309ZM-17.6506 339.419L22.4894 271.947L33.7665 309.694L9.16853 358.684L-17.6506 339.419ZM-31.1874 362.265L-18.7753 341.562L8.22743 360.813L-3.12247 383.281C-12.5279 376.416 -21.7659 369.333 -31.1874 362.265ZM-1.34187 384.785L36.0497 310.542C36.2172 310.323 36.1851 309.915 36.153 309.506L24.1487 269.556L34.816 257.211L50.1783 311.693C50.2104 312.101 50.4101 312.291 50.7933 312.466C50.9929 312.656 51.3601 312.627 51.7272 312.598L96.3643 295.324C96.8989 295.077 97.218 294.435 96.9863 293.837L79.4851 240.345L96.7953 232.615L111.074 270.948L118.615 287.001C118.847 287.599 119.414 287.76 119.964 287.717L146.765 280.885L155.018 277.771C155.552 277.524 155.871 276.882 155.64 276.284C155.408 275.686 154.825 275.32 154.29 275.568L146.924 278.201L128.574 218.612L138.933 214.099L157.689 229.476L180.496 298.785L163.801 307.289C163.618 307.303 163.45 307.522 163.466 307.726L103.002 391.59L51.0985 401.009C50.7313 401.038 50.5638 401.257 50.3962 401.476L40.9355 417.425C27.338 406.575 13.0061 395.782 -1.34187 384.785ZM18.3249 465.848L-10.5598 450.855L-13.8412 449.058L2.8396 402.745C16.7883 413.363 31.3198 424.345 45.8674 435.532L46.0957 469.009L18.3249 465.848ZM55.9829 587.829L49.2991 580.34L48.0312 437.211C67.8884 452.502 87.7456 467.793 105.655 481.798L98.8445 519.732L85.6787 594.333C70.6553 591.197 58.0505 588.283 55.9829 587.829ZM87.9458 594.976L101.024 521.616L112.695 524.398L100.167 597.715C95.8487 596.822 91.8973 595.899 87.9458 594.976ZM102.051 598.184L120.051 493.407C125.76 497.891 131.085 502.199 136.211 506.317C121.42 546.111 115.725 579.437 113.323 600.586C109.755 599.839 106.003 599.106 102.051 598.184ZM124.611 603.193C125.056 599.459 125.653 595.302 126.067 591.16C128.997 572.025 134.47 545.292 145.697 514.203C151.023 518.511 155.766 522.453 159.942 526.235C150.911 559.412 143.742 599.841 142.3 607.352C139.834 606.518 133.248 604.981 124.611 603.193ZM204.246 598.787C195.323 602.776 183.303 604.953 172.137 606.241L171.953 606.256C159.502 607.645 148.223 607.503 144.703 607.369C145.229 604.656 146.368 597.991 148.08 589.225L148.264 589.211L178.785 582.704C179.336 582.661 179.838 582.005 179.591 581.202C179.542 580.59 178.944 580.02 178.225 580.282L148.439 586.732C151.593 570.455 156.454 547.675 161.722 527.739C171.44 536.223 178.027 542.487 180.12 545.61C186.165 554.383 195.241 575.863 204.246 598.787ZM295.609 557.91C277.069 564.093 264.842 568.341 263.222 568.879C256.925 571.018 225.944 585.781 213.662 591.677C204.657 568.753 195.614 547.681 189.504 538.092C188.673 536.924 187.443 535.377 185.631 533.465L189.056 494.768L214.679 475.289C214.847 475.07 215.014 474.852 215.166 474.429L219.217 443.698C219.185 443.289 219.153 442.881 218.953 442.691L211.838 434.414C211.638 434.224 211.439 434.034 211.255 434.049C216.401 426.658 220.054 421.439 221.044 419.923L323.538 410.228L368.471 415.535L369.209 424.929L376.233 530.823C352.649 538.634 325.841 547.727 295.609 557.91ZM378.572 530.022L371.675 425.763L393.4 420.152C393.767 420.123 393.935 419.905 394.103 419.686L399.758 409.378L447.416 402.347C447.6 402.333 447.951 402.1 448.118 401.881L470.226 375.28L510.6 355.464C511.318 355.202 535.979 344.634 567.288 331.695L567.567 332.906C556.87 349.569 521.69 404.938 517.99 414.27C515.534 420.628 516.662 449.103 518.807 483.457C510.674 485.74 468.733 499.72 378.572 530.022Z" fill="#969BAB"/>
<circle opacity="0.3" cx="480" cy="191" r="7" fill="#FF7B25"/>
<circle cx="480" cy="191" r="4" fill="#E26D48"/>
</g>
<defs>
<clipPath id="clip0">
<rect width="616" height="460" fill="white"/>
</clipPath>
</defs>
</svg>
