<svg width="64" height="64" viewBox="0 0 64 64" fill="none" xmlns="http://www.w3.org/2000/svg">
<path d="M61.951 16.96C61.375 16 60.671 15.168 59.903 14.464C59.583 14.144 59.263 13.824 59.007 13.44C58.815 13.12 58.623 12.8 58.495 12.48C58.431 12.16 58.367 11.904 58.367 11.584C58.367 11.2 58.303 10.752 58.303 10.368C57.983 8.38401 56.511 6.72001 54.527 6.14401C53.567 5.95201 52.543 5.82401 51.583 5.82401C51.199 5.82401 50.815 5.76001 50.495 5.63201C50.239 5.56801 49.983 5.37601 49.791 5.18401C49.599 4.99201 49.471 4.73601 49.343 4.48001C49.151 4.09601 48.959 3.77601 48.767 3.45601C48.319 2.88001 47.807 2.36801 47.103 2.04801C46.463 1.72801 45.759 1.53601 45.055 1.53601C44.479 1.53601 43.903 1.66401 43.327 1.85601C43.007 1.98401 42.815 2.24001 42.751 2.56001L41.599 11.648C41.215 9.79201 40.575 8.00001 39.679 6.33601C39.487 6.01601 39.295 5.69601 39.103 5.37601C38.847 4.99201 38.527 4.73601 38.143 4.48001C37.503 4.09601 36.799 3.90401 36.031 3.90401C35.967 3.90401 35.903 3.90401 35.775 3.90401C35.199 3.90401 34.623 3.96801 34.111 4.22401C33.471 4.54401 32.895 5.05601 32.575 5.69601C32.063 6.65601 31.935 7.80801 32.255 8.89601C32.511 9.66401 32.895 10.432 33.471 11.008C33.983 11.584 34.559 12.096 35.199 12.544C35.455 12.736 35.711 12.864 35.903 12.992C35.199 12.928 34.495 12.928 33.791 12.928C32.767 12.928 31.679 12.992 30.527 13.056C27.391 13.44 19.839 14.272 13.119 20.032C10.239 22.528 7.93499 25.536 6.27099 28.928C6.14299 29.184 5.95099 29.44 5.69499 29.568L2.94299 31.424C1.66299 32.32 1.34299 34.048 2.17499 35.328C2.43099 35.712 2.81499 36.032 3.19899 36.224L4.92699 37.12C5.31099 37.312 5.56699 37.696 5.69499 38.08C6.65499 42.944 8.95899 47.488 12.415 51.072C16.255 55.104 21.183 57.856 26.623 59.008C26.879 59.072 27.071 59.2 27.263 59.328L27.647 58.944L27.263 59.328L29.119 61.248C30.399 62.592 32.575 62.656 33.919 61.376C33.983 61.312 33.983 61.312 34.047 61.248L36.991 58.112C37.119 57.984 37.247 57.92 37.375 57.856C42.047 55.168 45.887 51.264 48.447 46.528C50.815 42.112 51.327 37.44 51.327 33.344C51.327 31.104 51.199 29.056 51.071 27.264C51.007 25.792 50.815 24.576 50.687 23.552C52.991 21.76 55.807 20.736 58.751 20.608C59.391 20.608 60.095 20.48 60.735 20.288C61.119 20.16 61.439 19.968 61.695 19.712C62.015 19.392 62.207 19.008 62.335 18.56C62.335 18.432 62.335 18.368 62.335 18.24C62.271 17.792 62.143 17.344 61.951 16.96ZM34.815 9.92001C34.431 9.53601 34.175 9.02401 33.983 8.51201C33.791 7.93601 33.855 7.29601 34.175 6.72001C34.303 6.40001 34.559 6.20801 34.879 6.08001C35.199 5.95201 35.519 5.88801 35.839 5.95201C35.903 5.95201 35.967 5.95201 36.031 5.95201C36.415 5.95201 36.863 6.01601 37.183 6.20801C37.375 6.33601 37.503 6.46401 37.631 6.65601C37.823 6.91201 37.951 7.10401 38.079 7.36001C38.911 9.02401 39.551 10.752 39.935 12.608C39.935 12.672 39.999 12.8 39.999 12.864C39.871 12.8 39.679 12.8 39.487 12.736C38.399 12.352 37.311 11.84 36.351 11.2C35.711 10.752 35.199 10.368 34.815 9.92001ZM32.319 16.704C32.447 16.384 32.703 16.128 32.959 15.872C33.407 15.552 33.983 15.296 34.559 15.232C35.263 15.104 35.903 15.04 36.607 15.04C36.671 15.04 36.799 15.04 36.863 14.976C38.399 15.104 39.935 15.36 41.407 15.744C41.471 15.808 41.535 15.872 41.535 15.936C40.767 17.088 39.871 18.112 38.847 19.008C38.271 19.52 37.695 19.904 36.991 20.224C36.479 20.544 35.839 20.672 35.199 20.736C34.623 20.736 34.047 20.608 33.471 20.288C33.023 20.032 32.703 19.712 32.511 19.264C32.255 18.752 32.127 18.24 32.127 17.728C32.127 17.344 32.191 17.024 32.319 16.704ZM46.719 45.76C44.287 50.176 40.703 53.888 36.351 56.384C36.095 56.576 35.775 56.768 35.583 57.024C34.623 58.048 33.599 59.136 32.639 60.16C32.063 60.8 31.103 60.8 30.463 60.224L30.399 60.16L29.503 59.2H29.567C30.079 59.2 30.463 58.752 30.463 58.24C30.463 57.728 30.015 57.344 29.503 57.344C29.375 57.344 29.311 57.344 29.183 57.344C28.607 57.344 28.031 57.28 27.455 57.216C27.263 57.216 27.071 57.216 26.879 57.28C21.887 56.192 17.279 53.632 13.695 49.92C10.495 46.592 8.38299 42.368 7.48699 37.824C7.29499 36.864 6.65499 36.032 5.82299 35.584C5.24699 35.264 4.67099 34.944 4.09499 34.688C3.90299 34.624 3.77499 34.496 3.71099 34.304C3.64699 34.176 3.58299 33.984 3.58299 33.792C3.58299 33.472 3.71099 33.152 4.03099 32.96C4.92699 32.32 5.88699 31.744 6.78299 31.104C7.29499 30.784 7.67899 30.272 7.99899 29.76C9.53499 26.56 11.775 23.744 14.399 21.44C20.671 16.064 27.711 15.296 30.783 14.976C30.975 14.976 31.167 14.976 31.359 14.912C31.103 15.232 30.911 15.552 30.719 15.872C30.463 16.384 30.335 17.024 30.335 17.6C30.335 18.432 30.527 19.264 30.911 20.032C31.295 20.8 31.935 21.44 32.639 21.824C33.407 22.208 34.303 22.464 35.199 22.464C36.095 22.464 36.991 22.272 37.823 21.824C39.039 21.248 40.127 20.416 41.087 19.456C41.727 18.816 42.303 18.112 42.815 17.344C43.647 18.304 44.543 19.328 45.567 20.352C46.655 21.44 47.743 22.464 48.767 23.36C48.895 24.384 49.087 25.728 49.215 27.392C49.343 29.184 49.471 31.168 49.471 33.344C49.407 37.312 48.895 41.664 46.719 45.76ZM60.415 18.304C60.415 18.368 60.415 18.432 60.351 18.432C60.159 18.56 59.967 18.688 59.711 18.688C59.327 18.752 58.943 18.816 58.623 18.816C55.423 18.944 52.415 20.032 49.855 21.888C48.895 21.056 47.871 20.16 46.847 19.136C45.503 17.792 44.223 16.32 43.007 14.784C43.519 11.008 43.967 7.23201 44.479 3.45601C44.671 3.39201 44.799 3.39201 44.991 3.39201C45.439 3.39201 45.823 3.52001 46.207 3.71201C46.591 3.90401 46.911 4.16001 47.167 4.48001C47.359 4.80001 47.487 5.12001 47.679 5.37601C47.871 5.76001 48.127 6.14401 48.447 6.46401C48.511 6.52801 48.575 6.52801 48.639 6.59201C47.871 7.55201 47.231 8.57601 46.591 9.60001C46.335 10.048 46.463 10.624 46.911 10.88C47.359 11.136 47.935 11.008 48.191 10.56C48.767 9.53601 49.471 8.57601 50.175 7.68001C50.239 7.61601 50.239 7.55201 50.303 7.48801C50.943 7.61601 51.583 7.74401 52.223 7.74401C52.863 7.74401 53.503 7.80801 54.143 7.93601C55.423 8.32001 56.319 9.34401 56.575 10.624C56.639 10.944 56.639 11.328 56.639 11.648C56.639 11.84 56.639 12.096 56.703 12.352C56.639 12.352 56.575 12.416 56.575 12.416C55.039 13.44 53.567 14.464 51.967 15.424C51.519 15.68 51.391 16.256 51.647 16.704C51.903 17.152 52.479 17.28 52.927 17.024H52.991C54.463 16.064 55.935 15.104 57.343 14.144C57.407 14.272 57.535 14.4 57.599 14.528C58.111 15.168 58.623 15.744 59.199 16.256C59.647 16.704 60.095 17.216 60.415 17.792C60.351 17.92 60.415 18.112 60.415 18.304Z" fill="#1F3338"/>
<path d="M35.0739 25.7281C34.4339 26.2401 33.7939 26.8161 33.1539 27.3921C32.1939 26.7521 30.9779 26.4321 29.8259 26.3681C29.6339 26.3681 29.4419 26.3681 29.2499 26.3681C27.8419 26.4961 26.4979 27.1361 25.4739 28.0961C24.9619 28.5441 24.5779 29.0561 24.2579 29.6961C23.9379 30.2721 23.8099 30.9121 23.7459 31.5521V31.6161C23.7459 32.5121 24.0659 33.4081 24.6419 34.1761C25.1539 34.8801 25.6659 35.4561 26.2419 36.0961C26.8179 36.6721 27.4579 37.2481 28.1619 37.6961C28.6099 38.0161 28.9939 38.4001 29.2499 38.8481C29.6979 39.4881 29.9539 40.1921 30.0179 40.9601C30.0179 41.1521 30.0179 41.2801 29.9539 41.4721C29.8259 41.9841 29.5699 42.4961 29.1859 42.8801C28.8659 43.2001 28.5459 43.4561 28.1619 43.6481C27.3939 44.0961 26.4979 44.3521 25.5379 44.3521C25.2819 44.3521 25.0899 44.3521 24.8339 44.2881C23.8099 44.0961 22.8499 43.6481 22.0819 42.8801C21.3139 42.1761 20.8019 41.2801 20.4819 40.3201C20.2899 39.8081 20.2259 39.2321 20.2259 38.6561C20.2259 37.8241 20.4179 37.0561 20.6739 36.2881C20.8659 35.8401 20.6739 35.2641 20.2259 35.0721C19.7779 34.8801 19.2019 35.0721 19.0099 35.5201V35.5841C18.6259 36.5441 18.4339 37.5681 18.4339 38.5921C18.4339 39.3601 18.5619 40.0641 18.7539 40.7681C19.0099 41.6001 19.3939 42.3681 19.9059 43.0721C19.3939 43.6481 18.9459 44.2241 18.4979 44.8001C18.1779 45.1841 18.2419 45.7601 18.6259 46.0801C19.0099 46.4001 19.5859 46.3361 19.9059 45.9521C20.2899 45.4401 20.6739 44.9281 21.1219 44.4801C22.0819 45.3121 23.2979 45.8881 24.5139 46.0801C24.8339 46.1441 25.1539 46.1441 25.4739 46.1441C26.7539 46.1441 27.9699 45.8241 29.0579 45.1201C29.5699 44.8001 30.0179 44.4801 30.4019 44.0961C31.0419 43.4561 31.4899 42.6881 31.6819 41.7921C31.7459 41.4721 31.7459 41.2161 31.7459 40.8961C31.6819 39.8081 31.3619 38.7201 30.7219 37.8241C30.3379 37.1841 29.7619 36.6081 29.1219 36.1601C28.5459 35.7761 27.9699 35.3281 27.4579 34.7521C26.9459 34.2401 26.4339 33.6641 26.0499 33.0881C25.7299 32.6401 25.5379 32.1281 25.4739 31.5521V31.4881C25.4739 31.1041 25.6019 30.7201 25.7939 30.4001C26.1139 29.7601 26.6259 29.2481 27.2019 28.8641C27.8419 28.4161 28.5459 28.1601 29.3139 28.0961C29.4419 28.0961 29.5699 28.0961 29.6979 28.0961C31.1059 28.0961 32.4499 28.8001 33.2819 30.0161C33.7939 30.7201 34.0499 31.5521 34.0499 32.4481C34.0499 33.0881 33.9219 33.7281 33.7299 34.3041C33.5379 34.7521 33.7299 35.3281 34.1779 35.5201C34.6259 35.7121 35.2019 35.5201 35.3939 35.0721C35.7139 34.2401 35.9059 33.3441 35.9059 32.5121C35.9059 31.2961 35.5219 30.0801 34.8179 29.0561C34.6899 28.8641 34.5619 28.7361 34.4339 28.6081C34.9459 28.0961 35.5219 27.6481 36.0979 27.2001C36.4819 26.8801 36.5459 26.3041 36.2899 25.9201C36.0339 25.4721 35.4579 25.4081 35.0739 25.7281Z" fill="#E26D48"/>
</svg>
