<svg width="60" height="56" viewBox="0 0 60 56" fill="none" xmlns="http://www.w3.org/2000/svg">
<path d="M32.4891 55.9375C34.8891 55.9375 36.8391 53.9875 36.8391 51.5875V48.1V4.4125C36.8391 2.0125 34.8891 0.0625 32.4891 0.0625H4.38906C1.98906 0.0625 0.0390625 2.0125 0.0390625 4.4125V48.1V51.5875C0.0390625 53.9875 1.98906 55.9375 4.38906 55.9375H32.4891ZM4.38906 1.8125H32.4891C33.9266 1.8125 35.0891 2.975 35.0891 4.4125V47.225H27.2266V46.0875C27.2266 45.6 26.8391 45.2125 26.3516 45.2125H25.4266L27.5141 43.125C27.6766 42.9625 27.7766 42.7375 27.7766 42.5V33.8375C27.7766 33.475 27.5516 33.15 27.2141 33.025L20.5266 30.4125V24.9H25.7766C27.0391 24.9 28.2391 24.4 29.1391 23.5125C30.0391 22.625 30.5266 21.425 30.5266 20.15C30.5266 17.525 28.4016 15.4 25.7766 15.4H11.1016C9.83906 15.4 8.63906 15.9 7.73906 16.7875C6.83906 17.6875 6.35156 18.875 6.35156 20.15C6.35156 22.775 8.47656 24.9 11.1016 24.9H13.6891V29.9875C12.5641 30.1625 11.5266 30.675 10.7016 31.5C9.66406 32.525 9.10156 33.8875 9.10156 35.3375V42.7625C9.10156 42.8125 9.10156 42.8625 9.11406 42.925C9.13906 43.075 9.21406 43.225 9.31406 43.35L10.9641 45.225H10.5141C10.0266 45.225 9.63906 45.6125 9.63906 46.1V47.2375H1.78906V4.4125C1.78906 2.975 2.95156 1.8125 4.38906 1.8125ZM19.5141 19.375C18.8641 18.725 18.0141 18.375 17.1016 18.375C15.2141 18.375 13.6891 19.9125 13.6891 21.7875V23.1375H11.1016C9.45156 23.1375 8.10156 21.7875 8.10156 20.1375C8.10156 19.3375 8.41406 18.5875 8.97656 18.0125C9.53906 17.45 10.3016 17.1375 11.1016 17.1375H25.7641C27.4141 17.1375 28.7641 18.4875 28.7641 20.1375C28.7641 20.9375 28.4516 21.6875 27.8891 22.2625C27.3266 22.825 26.5641 23.1375 25.7641 23.1375H20.5141V21.7875C20.5266 20.8875 20.1641 20.025 19.5141 19.375ZM14.5641 35.8C15.0516 35.8 15.4391 35.4125 15.4391 34.925V24.025V21.8C15.4391 20.875 16.1891 20.1375 17.1016 20.1375C17.5516 20.1375 17.9641 20.3125 18.2766 20.625C18.5891 20.9375 18.7641 21.3625 18.7641 21.8V24.025V31.0125C18.7641 31.375 18.9891 31.7 19.3266 31.825L26.0141 34.4375V42.15L22.9391 45.225H13.2766L10.8391 42.4375V35.3375C10.8391 34.35 11.2266 33.425 11.9266 32.7375C12.4141 32.25 13.0141 31.925 13.6641 31.7625L13.6766 34.925C13.6766 35.1 13.7266 35.275 13.8266 35.4125C14.0016 35.65 14.2641 35.8 14.5641 35.8ZM11.4016 48.1V46.9625H12.9016H23.3141H25.4766V48.1V51.1375H11.4016V48.1ZM1.78906 51.5875V48.975H9.65156V52.0125C9.65156 52.5 10.0391 52.8875 10.5266 52.8875H26.3641C26.8516 52.8875 27.2391 52.5 27.2391 52.0125V48.975H35.1016V51.5875C35.1016 53.025 33.9391 54.1875 32.5016 54.1875H4.38906C2.95156 54.1875 1.78906 53.025 1.78906 51.5875Z" fill="#1F3338"/>
<path d="M50.1516 19.0376V16.0376C50.6891 16.1626 51.2141 16.4001 51.7641 16.7251C51.9266 16.8251 52.0766 16.8625 52.2391 16.8625C52.7266 16.8625 53.1141 16.4876 53.1141 16C53.1141 15.625 52.8891 15.3875 52.6391 15.25C51.9141 14.8 51.1391 14.5001 50.2141 14.3876V14.0376C50.2141 13.6626 49.9141 13.3625 49.5391 13.3625C49.1641 13.3625 48.8516 13.6626 48.8516 14.0376V14.3625C46.9016 14.525 45.5641 15.6751 45.5641 17.3501C45.5641 19.1126 46.6266 19.9751 48.9141 20.5751V23.6626C48.0516 23.5001 47.3391 23.1501 46.6016 22.6125C46.4641 22.5 46.2766 22.4376 46.0891 22.4376C45.6016 22.4376 45.2266 22.8125 45.2266 23.3C45.2266 23.625 45.3891 23.8751 45.6516 24.05C46.6016 24.725 47.6891 25.1501 48.8641 25.2751V26.2501C48.8641 26.6251 49.1766 26.9251 49.5516 26.9251C49.9266 26.9251 50.2266 26.6251 50.2266 26.2501V25.3126C52.2141 25.1251 53.5641 23.9876 53.5641 22.2626C53.5391 20.5751 52.5266 19.6251 50.1516 19.0376ZM48.9141 18.7001C47.7141 18.3126 47.4141 17.9001 47.4141 17.2501C47.4141 16.5626 47.9141 16.025 48.9141 15.9375V18.7001ZM50.1516 23.7251V20.8751C51.3516 21.2501 51.7016 21.675 51.7016 22.3625C51.6891 23.1125 51.1516 23.6126 50.1516 23.7251Z" fill="#E26D48"/>
<path d="M49.3766 9.54993C47.8641 9.54993 46.4016 9.86243 45.0266 10.4874C41.2391 12.1999 38.7891 15.9874 38.7891 20.1499C38.7891 20.2624 38.7891 20.3874 38.7891 20.4999C38.8766 23.2499 40.0141 25.8374 42.0016 27.7499C43.9891 29.6749 46.6016 30.7374 49.3766 30.7374C55.2141 30.7374 59.9641 25.9874 59.9641 20.1499C59.9641 14.3124 55.2141 9.54993 49.3766 9.54993ZM49.3766 28.9874C44.5766 28.9874 40.7016 25.2374 40.5391 20.4374C40.5391 20.3374 40.5391 20.2499 40.5391 20.1499C40.5391 16.6749 42.5766 13.5124 45.7391 12.0874C46.8891 11.5749 48.1141 11.3124 49.3766 11.3124C54.2516 11.3124 58.2141 15.2749 58.2141 20.1499C58.2141 25.0249 54.2516 28.9874 49.3766 28.9874Z" fill="#1F3338"/>
</svg>
