<svg width="25" height="24" viewBox="0 0 25 24" fill="none" xmlns="http://www.w3.org/2000/svg">
<circle cx="12.5469" cy="12" r="11.5" fill="white" stroke="#0F0F0F"/>
<path d="M18.8968 8.14741C18.4414 8.34923 17.9521 8.48559 17.4377 8.54723C17.9685 8.22966 18.3655 7.72985 18.5548 7.14104C18.0562 7.43722 17.5105 7.6457 16.9414 7.75741C16.5587 7.34879 16.0518 7.07795 15.4994 6.98694C14.947 6.89593 14.38 6.98984 13.8864 7.25409C13.3928 7.51834 13.0003 7.93815 12.7698 8.44834C12.5393 8.95853 12.4837 9.53055 12.6115 10.0756C11.6012 10.0249 10.6128 9.76226 9.7105 9.30482C8.80821 8.84737 8.01218 8.20532 7.37408 7.42032C7.1559 7.79668 7.03045 8.23305 7.03045 8.69777C7.0302 9.11614 7.13323 9.52809 7.33038 9.89709C7.52753 10.2661 7.81272 10.5807 8.16063 10.8131C7.75714 10.8002 7.36256 10.6912 7.00972 10.4951V10.5278C7.00968 11.1145 7.21265 11.6833 7.58418 12.1374C7.95572 12.5916 8.47294 12.9032 9.04809 13.0194C8.67379 13.1207 8.28136 13.1356 7.90045 13.0631C8.06272 13.5679 8.37881 14.0094 8.80447 14.3257C9.23013 14.6421 9.74404 14.8173 10.2743 14.8271C9.37418 15.5336 8.26257 15.9169 7.11827 15.9152C6.91556 15.9153 6.71303 15.9035 6.51172 15.8798C7.67325 16.6266 9.02536 17.023 10.4063 17.0214C15.0808 17.0214 17.6363 13.1498 17.6363 9.79196C17.6363 9.68287 17.6336 9.57269 17.6287 9.46359C18.1257 9.10413 18.5548 8.65899 18.8957 8.14905L18.8968 8.14741Z" fill="#0F0F0F"/>
</svg>
