<svg width="64" height="64" viewBox="0 0 64 64" fill="none" xmlns="http://www.w3.org/2000/svg">
<path d="M12.1333 30.6025H54.8321C54.9978 30.6025 55.1568 30.5367 55.274 30.4195C55.3912 30.3023 55.4571 30.1433 55.4571 29.9775V5.88879C55.4571 5.72303 55.3912 5.56406 55.274 5.44685C55.1568 5.32964 54.9978 5.26379 54.8321 5.26379H12.1333C11.9675 5.26379 11.8086 5.32964 11.6914 5.44685C11.5741 5.56406 11.5083 5.72303 11.5083 5.88879V29.9775C11.5083 30.1433 11.5741 30.3023 11.6914 30.4195C11.8086 30.5367 11.9675 30.6025 12.1333 30.6025ZM46.4283 6.51379C47.0533 7.86254 49.3771 12.0875 54.2071 12.4275V23.4388C49.3745 23.78 47.0508 28 46.4283 29.3525H20.5371C19.9121 28.005 17.5883 23.78 12.7583 23.4388V12.4275C17.5883 12.0875 19.9146 7.86254 20.5371 6.51379H46.4283ZM12.7583 24.6925C16.4333 24.9913 18.3908 27.8838 19.1546 29.3525H12.7583V24.6925ZM47.8183 29.3525C48.5945 27.8888 50.5683 24.9963 54.2071 24.6938V29.3525H47.8183ZM54.2071 11.175C50.5321 10.875 48.5745 7.98379 47.8108 6.51379H54.2071V11.175ZM19.147 6.51379C18.3745 7.97879 16.3921 10.875 12.7583 11.1738V6.51379H19.147Z" fill="#1F3338"/>
<path d="M59.7879 41.6963C59.3521 40.7967 58.622 40.073 57.7185 39.6451C56.8151 39.2173 55.7926 39.111 54.8204 39.3438L42.1129 42.3288C41.9803 42.2401 41.8416 42.1608 41.6979 42.0913L32.0504 37.4175C28.194 35.5539 23.8131 35.0758 19.6454 36.0638L13.7804 37.46H9.37545V31.96C9.37545 31.7943 9.3096 31.6353 9.19239 31.5181C9.07518 31.4009 8.91621 31.335 8.75045 31.335H4.52295C4.35719 31.335 4.19822 31.4009 4.08101 31.5181C3.9638 31.6353 3.89795 31.7943 3.89795 31.96C3.89795 32.1258 3.9638 32.2848 4.08101 32.402C4.19822 32.5192 4.35719 32.585 4.52295 32.585H8.12545V57.4863H4.52295C4.35719 57.4863 4.19822 57.5521 4.08101 57.6693C3.9638 57.7865 3.89795 57.9455 3.89795 58.1113C3.89795 58.277 3.9638 58.436 4.08101 58.5532C4.19822 58.6704 4.35719 58.7363 4.52295 58.7363H8.75045C8.91621 58.7363 9.07518 58.6704 9.19239 58.5532C9.3096 58.436 9.37545 58.277 9.37545 58.1113V50.125H16.8754L27.7642 54.375C30.1078 55.2863 32.615 55.7012 35.1273 55.5937C37.6395 55.4861 40.1021 54.8583 42.3592 53.75L58.3755 45.8463C59.1112 45.4812 59.6726 44.84 59.9372 44.0625C60.2019 43.285 60.1482 42.4344 59.7879 41.6963ZM57.8192 44.725L41.8055 52.6175C39.7047 53.6508 37.4123 54.2366 35.0734 54.3377C32.7345 54.4388 30.4 54.0531 28.2179 53.205L17.2179 48.9225C17.1488 48.8941 17.0752 48.878 17.0004 48.875H9.37545V38.71H13.8479C13.8968 38.7103 13.9454 38.7048 13.9929 38.6938L19.9305 37.28C23.8176 36.3582 27.9036 36.8041 31.5005 38.5425L41.1479 43.2163C41.6165 43.444 41.9911 43.828 42.2072 44.302C42.4232 44.7761 42.4673 45.3107 42.3317 45.8138C42.1975 46.3007 41.8924 46.723 41.4724 47.0035C41.0524 47.284 40.5454 47.4039 40.0442 47.3413L25.6829 45.4925C25.6015 45.4821 25.5189 45.4878 25.4396 45.5093C25.3604 45.5309 25.2862 45.5678 25.2213 45.618C25.1564 45.6682 25.1019 45.7307 25.0611 45.8019C25.0204 45.8732 24.994 45.9517 24.9836 46.0331C24.9732 46.1146 24.9789 46.1972 25.0004 46.2765C25.0219 46.3557 25.0588 46.4299 25.109 46.4948C25.1592 46.5597 25.2217 46.6142 25.293 46.655C25.3642 46.6957 25.4428 46.7221 25.5242 46.7325L39.8892 48.5813C40.0297 48.5997 40.1713 48.6089 40.313 48.6088C41.047 48.6069 41.7603 48.3647 42.3436 47.9191C42.9269 47.4735 43.3482 46.849 43.5429 46.1413C43.6678 45.6763 43.6951 45.1906 43.6233 44.7145C43.5514 44.2385 43.3819 43.7824 43.1255 43.375L55.103 40.5625C55.8002 40.3947 56.5339 40.4706 57.182 40.7776C57.8301 41.0846 58.3536 41.6042 58.6655 42.25C58.8793 42.6908 58.9103 43.1982 58.7518 43.6617C58.5933 44.1253 58.2581 44.5074 57.8192 44.725Z" fill="#1F3338"/>
<path d="M33.5521 23.6388H33.4996C31.3133 23.58 30.9158 22.2488 30.9021 22.2C30.8845 22.1181 30.8506 22.0406 30.8025 21.9721C30.7543 21.9035 30.6929 21.8453 30.6219 21.801C30.5508 21.7567 30.4716 21.7271 30.3888 21.714C30.3061 21.7009 30.2216 21.7045 30.1403 21.7247C30.059 21.7449 29.9826 21.7812 29.9157 21.8315C29.8487 21.8818 29.7925 21.9451 29.7505 22.0175C29.7084 22.0899 29.6814 22.1701 29.6709 22.2532C29.6604 22.3363 29.6668 22.4207 29.6896 22.5012C29.7108 22.5887 30.2196 24.5138 32.8583 24.8425V26.5C32.8583 26.6658 32.9242 26.8247 33.0414 26.9419C33.1586 27.0592 33.3176 27.125 33.4833 27.125C33.6491 27.125 33.8081 27.0592 33.9253 26.9419C34.0425 26.8247 34.1083 26.6658 34.1083 26.5V24.8412C35.6021 24.5912 36.9358 23.38 37.2333 21.8925C37.4108 21.0037 37.4233 18.7825 33.7071 17.35C31.7158 16.5825 30.7071 15.4425 30.9571 14.225C31.1721 13.1513 32.3108 12.2338 33.4133 12.2338H33.4658C35.6371 12.2925 36.0446 13.6088 36.0646 13.68C36.1084 13.8373 36.212 13.9712 36.3532 14.0531C36.4945 14.135 36.6622 14.1584 36.8205 14.1182C36.9787 14.078 37.115 13.9775 37.2001 13.8381C37.2852 13.6988 37.3124 13.5316 37.2758 13.3725C37.2546 13.285 36.7458 11.3612 34.1083 11.0312V9.375C34.1083 9.20924 34.0425 9.05027 33.9253 8.93306C33.8081 8.81585 33.6491 8.75 33.4833 8.75C33.3176 8.75 33.1586 8.81585 33.0414 8.93306C32.9242 9.05027 32.8583 9.20924 32.8583 9.375V11.025C31.3471 11.275 30.0296 12.4838 29.7333 13.9738C29.5558 14.8637 29.5433 17.085 33.2596 18.5175C35.2508 19.285 36.2533 20.425 36.0096 21.6425C35.7933 22.7212 34.6546 23.6388 33.5521 23.6388Z" fill="#E26D48"/>
</svg>
