<svg width="24" height="24" viewBox="0 0 24 24" fill="none" xmlns="http://www.w3.org/2000/svg">
<path fill-rule="evenodd" clip-rule="evenodd" d="M12 14.25C13.864 14.25 15.375 12.739 15.375 10.875C15.375 9.01104 13.864 7.5 12 7.5C10.136 7.5 8.625 9.01104 8.625 10.875C8.625 12.739 10.136 14.25 12 14.25Z" stroke="#243B41" stroke-width="1.5" stroke-linecap="round" stroke-linejoin="round"/>
<path d="M17.0799 18.4999C15.96 16.7837 14.0492 15.749 11.9999 15.749C9.95063 15.749 8.03988 16.7837 6.91992 18.4999" stroke="#243B41" stroke-width="1.5" stroke-linecap="round" stroke-linejoin="round"/>
<path d="M12 0.75V1.5" stroke="#243B41" stroke-width="1.5" stroke-linecap="round" stroke-linejoin="round"/>
<path d="M20.2418 3.75781L19.4248 4.57481" stroke="#243B41" stroke-width="1.5" stroke-linecap="round" stroke-linejoin="round"/>
<path d="M23.25 12H22.5" stroke="#243B41" stroke-width="1.5" stroke-linecap="round" stroke-linejoin="round"/>
<path d="M19.9548 19.9548L19.4248 19.4248" stroke="#243B41" stroke-width="1.5" stroke-linecap="round" stroke-linejoin="round"/>
<path d="M12 23.25V22.5" stroke="#243B41" stroke-width="1.5" stroke-linecap="round" stroke-linejoin="round"/>
<path d="M4.04492 19.9548L4.57492 19.4248" stroke="#243B41" stroke-width="1.5" stroke-linecap="round" stroke-linejoin="round"/>
<path d="M0.75 12H1.5" stroke="#243B41" stroke-width="1.5" stroke-linecap="round" stroke-linejoin="round"/>
<path d="M4.04492 4.04492L4.57492 4.57492" stroke="#243B41" stroke-width="1.5" stroke-linecap="round" stroke-linejoin="round"/>
<path fill-rule="evenodd" clip-rule="evenodd" d="M12 20.25C16.5563 20.25 20.25 16.5563 20.25 12C20.25 7.44365 16.5563 3.75 12 3.75C7.44365 3.75 3.75 7.44365 3.75 12C3.75 16.5563 7.44365 20.25 12 20.25Z" stroke="#243B41" stroke-width="1.5" stroke-linecap="round" stroke-linejoin="round"/>
</svg>
