<svg width="24" height="24" viewBox="0 0 24 24" fill="none" xmlns="http://www.w3.org/2000/svg">
<path fill-rule="evenodd" clip-rule="evenodd" d="M12.6163 1.13042L14.0723 3.75042H16.5513C16.8288 3.74557 17.0814 3.91011 17.189 4.16595C17.2967 4.42178 17.2378 4.71738 17.0403 4.91242L14.7633 7.40042L16.0253 10.3004C16.1384 10.5726 16.0654 10.8865 15.8438 11.0808C15.6221 11.275 15.3013 11.3063 15.0463 11.1584L12.0003 9.44042L8.94833 11.1544C8.69338 11.3023 8.37254 11.271 8.15091 11.0768C7.92927 10.8825 7.85621 10.5686 7.96933 10.2964L9.23133 7.40042L6.95433 4.91242C6.75791 4.71701 6.6997 4.42197 6.80716 4.1666C6.91463 3.91122 7.16629 3.74659 7.44333 3.75042H9.92333L11.3793 1.13042C11.4972 0.897106 11.7364 0.75 11.9978 0.75C12.2592 0.75 12.4984 0.897106 12.6163 1.13042Z" stroke="#243B41" stroke-width="1.5" stroke-linecap="round" stroke-linejoin="round"/>
<path d="M13.5 19.5V23.25H17.25" stroke="#243B41" stroke-width="1.5" stroke-linecap="round" stroke-linejoin="round"/>
<path d="M16.5 15.75V19.5H20.25" stroke="#243B41" stroke-width="1.5" stroke-linecap="round" stroke-linejoin="round"/>
<path d="M19.5 12.75V16.5H23.25" stroke="#243B41" stroke-width="1.5" stroke-linecap="round" stroke-linejoin="round"/>
<path d="M19.5 16.5L22.5 13.5" stroke="#243B41" stroke-width="1.5" stroke-linecap="round" stroke-linejoin="round"/>
<path d="M10.5 19.5V23.25H6.75" stroke="#243B41" stroke-width="1.5" stroke-linecap="round" stroke-linejoin="round"/>
<path d="M7.5 15.75V19.5H3.75" stroke="#243B41" stroke-width="1.5" stroke-linecap="round" stroke-linejoin="round"/>
<path d="M4.5 12.75V16.5H0.75" stroke="#243B41" stroke-width="1.5" stroke-linecap="round" stroke-linejoin="round"/>
<path d="M4.5 16.5L1.5 13.5" stroke="#243B41" stroke-width="1.5" stroke-linecap="round" stroke-linejoin="round"/>
</svg>
