<svg width="64" height="64" viewBox="0 0 64 64" fill="none" xmlns="http://www.w3.org/2000/svg">
<path d="M39.7779 34.1587C39.9169 34.2975 40.1052 34.3754 40.3016 34.3754C40.498 34.3754 40.6864 34.2975 40.8254 34.1587L41.3766 33.6037C42.4566 34.2762 43.9191 34.3437 44.9754 33.6387C45.4979 33.29 47.0866 31.905 45.6479 28.6625C44.9829 27.1625 45.0354 26.0212 45.7879 25.5187C46.4666 25.065 47.5566 25.1925 48.1179 25.7875C49.2116 26.9412 48.8054 27.7875 48.7629 27.865C48.713 27.9484 48.68 28.0409 48.6658 28.1371C48.6517 28.2333 48.6566 28.3314 48.6803 28.4257C48.7041 28.52 48.7462 28.6087 48.8042 28.6868C48.8622 28.7648 48.935 28.8307 49.0185 28.8806C49.102 28.9305 49.1945 28.9635 49.2907 28.9776C49.3869 28.9918 49.4849 28.9869 49.5793 28.9631C49.6736 28.9394 49.7623 28.8973 49.8403 28.8393C49.9184 28.7813 49.9842 28.7084 50.0341 28.625C50.0741 28.5575 50.8966 27.1037 49.6454 25.335L50.1704 24.8087C50.2416 24.7405 50.2984 24.6588 50.3376 24.5683C50.3767 24.4778 50.3974 24.3804 50.3984 24.2818C50.3994 24.1833 50.3807 24.0855 50.3434 23.9942C50.306 23.903 50.2509 23.8201 50.1811 23.7505C50.1113 23.6809 50.0283 23.6259 49.9369 23.5888C49.8456 23.5517 49.7478 23.5332 49.6492 23.5344C49.5506 23.5357 49.4533 23.5566 49.3629 23.596C49.2725 23.6353 49.1909 23.6924 49.1229 23.7637L48.5966 24.2887C48.0446 23.9471 47.4083 23.7657 46.7591 23.765C46.1252 23.758 45.5033 23.9385 44.9716 24.2837C44.4491 24.6312 42.8604 26.0175 44.2991 29.26C44.9641 30.76 44.9116 31.9012 44.1579 32.4037C43.4816 32.855 42.3904 32.7287 41.8291 32.135C40.7429 30.9887 41.1354 30.1475 41.1891 30.045C41.2831 29.8765 41.3074 29.678 41.2569 29.4919C41.2064 29.3057 41.0852 29.1467 40.919 29.0488C40.7529 28.9508 40.555 28.9218 40.3677 28.9678C40.1804 29.0138 40.0185 29.1312 39.9166 29.295C39.8766 29.3612 39.0541 30.815 40.3041 32.5837L39.7779 33.11C39.639 33.2492 39.5611 33.4377 39.5611 33.6343C39.5611 33.8309 39.639 34.0195 39.7779 34.1587Z" fill="#E26D48"/>
<path d="M26.275 26.7626C26.0785 26.7628 25.8901 26.841 25.7513 26.98L18.245 34.4801C18.15 34.5776 18.0837 34.6995 18.0533 34.8323C18.023 34.9651 18.0298 35.1036 18.0731 35.2328C18.1164 35.3619 18.1944 35.4767 18.2986 35.5644C18.4028 35.6521 18.5292 35.7094 18.6638 35.7301L25.6288 36.7301L31.4088 42.5126L37.1925 48.2951L38.1925 55.2576C38.2133 55.3921 38.2708 55.5183 38.3586 55.6224C38.4464 55.7264 38.5611 55.8043 38.6903 55.8474C38.8194 55.8905 38.9579 55.8972 39.0906 55.8668C39.2233 55.8364 39.3451 55.7701 39.4425 55.6751L46.9425 48.1751C47.0226 48.0936 47.0831 47.995 47.1192 47.8867C47.1554 47.7784 47.1664 47.6632 47.1513 47.5501L46.1638 40.7101L51.4338 35.4388C51.4382 35.4348 51.442 35.4302 51.445 35.4251L55.0225 31.875C58.4325 28.4638 62.9875 20.5175 60.6975 13.7025C60.6603 13.5947 60.599 13.4967 60.5182 13.4161C60.4374 13.3356 60.3393 13.2745 60.2313 13.2375C58.9672 12.8201 57.6437 12.6111 56.3125 12.6188C50.5975 12.6188 44.8325 16.145 42.0625 18.9138L33.2188 27.7575L26.3813 26.7701C26.3461 26.7651 26.3106 26.7626 26.275 26.7626ZM39.4525 53.5988L38.6763 48.2238L38.7625 48.1363L44.875 42.0238L45.6513 47.3988L39.4525 53.5988ZM43.1088 19.9588C46.2088 16.8625 53.31 12.7288 59.4063 14.5288C61.21 20.6325 57.0763 27.7276 53.9763 30.8251L53.915 30.8876C54.2501 29.3909 54.2013 27.8339 53.7732 26.3612C53.3451 24.8885 52.5516 23.548 51.4665 22.4642C50.3813 21.3804 49.0398 20.5886 47.5665 20.1624C46.0933 19.7362 44.5362 19.6893 43.04 20.0263L43.1088 19.9588ZM39.5388 23.53C40.252 22.816 41.0989 22.2494 42.0311 21.8626C42.9634 21.4759 43.9626 21.2765 44.9719 21.2759C45.9811 21.2753 46.9806 21.4736 47.9133 21.8593C48.8459 22.2449 49.6935 22.8106 50.4075 23.5238C51.1216 24.237 51.6882 25.0839 52.075 26.0162C52.4617 26.9484 52.6611 27.9476 52.6617 28.9569C52.6628 30.9952 51.8543 32.9504 50.4138 34.3926L50.3975 34.4088C48.9475 35.8095 47.0051 36.5842 44.9891 36.5658C42.9732 36.5474 41.0452 35.7375 39.6209 34.3106C38.1967 32.8837 37.3903 30.9542 37.3756 28.9382C37.3609 26.9222 38.1392 24.9812 39.5425 23.5338L39.5388 23.53ZM34 29.0663L36.025 27.0401C35.6973 28.5351 35.7509 30.0886 36.1809 31.5575C36.6109 33.0265 37.4035 34.3636 38.4857 35.446C39.5679 36.5283 40.905 37.321 42.3738 37.7512C43.8427 38.1813 45.3962 38.2351 46.8913 37.9076L44.875 39.9288L37.895 46.9101L27.03 36.0451L34 29.0663ZM31.9075 29.0663L25.71 35.2638L20.335 34.4888L26.535 28.2875L31.9075 29.0663Z" fill="#1F3338"/>
<path d="M34.14 49.435C34.0481 49.4027 33.9507 49.3889 33.8535 49.3944C33.7562 49.4 33.661 49.4247 33.5734 49.4673C33.4858 49.5098 33.4075 49.5693 33.3429 49.6423C33.2784 49.7153 33.229 49.8003 33.1975 49.8925L30.9988 56.26L28.9825 52.335C28.9201 52.2141 28.8257 52.1126 28.7095 52.0418C28.5933 51.971 28.4598 51.9336 28.3238 51.9336C28.1877 51.9336 28.0543 51.971 27.9381 52.0418C27.8219 52.1126 27.7274 52.2141 27.665 52.335L24.54 58.4312L23.3838 54.9912C23.3503 54.8911 23.2957 54.7993 23.2238 54.7221C23.1518 54.6448 23.0642 54.5839 22.9667 54.5434C22.8692 54.5029 22.7642 54.4837 22.6586 54.4872C22.5531 54.4908 22.4496 54.5168 22.355 54.5637L16.48 57.4575L19.3738 51.5775C19.4198 51.4827 19.4451 51.3792 19.448 51.2739C19.4509 51.1686 19.4314 51.0638 19.3907 50.9667C19.3501 50.8695 19.2892 50.782 19.2121 50.7102C19.135 50.6384 19.0436 50.5837 18.9438 50.55L15.4988 49.3925L21.5963 46.2675C21.7176 46.2054 21.8194 46.111 21.8905 45.9948C21.9615 45.8786 21.9992 45.745 21.9992 45.6087C21.9992 45.4725 21.9615 45.3389 21.8905 45.2226C21.8194 45.1064 21.7176 45.012 21.5963 44.95L17.6713 42.935L24.0463 40.7312C24.2318 40.6669 24.3841 40.5315 24.4698 40.3549C24.5555 40.1783 24.5675 39.9748 24.5032 39.7893C24.4388 39.6039 24.3035 39.4515 24.1268 39.3658C23.9502 39.2802 23.7468 39.2682 23.5613 39.3325L15.5613 42.1025C15.4244 42.1502 15.3046 42.237 15.2167 42.3521C15.1287 42.4673 15.0765 42.6057 15.0665 42.7503C15.0565 42.8949 15.0892 43.0392 15.1605 43.1653C15.2318 43.2915 15.3385 43.3939 15.4675 43.46L19.6388 45.6125L13.2638 48.875C13.1342 48.9414 13.0272 49.0446 12.956 49.1716C12.8849 49.2986 12.8527 49.4438 12.8637 49.589C12.8746 49.7342 12.9281 49.8729 13.0175 49.9878C13.1069 50.1027 13.2282 50.1887 13.3663 50.235L17.67 51.6825L14.1888 58.75C14.1176 58.8891 14.0923 59.0471 14.1163 59.2015C14.1403 59.3559 14.2125 59.4988 14.3226 59.6097C14.4327 59.7206 14.575 59.7939 14.7292 59.8191C14.8834 59.8443 15.0416 59.8201 15.1813 59.75L22.2488 56.2662L23.7 60.5687C23.7462 60.7064 23.8321 60.8273 23.9469 60.9163C24.0617 61.0052 24.2002 61.0583 24.345 61.0687C24.4906 61.0814 24.6366 61.05 24.7641 60.9787C24.8916 60.9074 24.9947 60.7994 25.06 60.6687L28.3238 54.2937L30.47 58.4762C30.5383 58.6036 30.6414 58.7089 30.7674 58.7798C30.8934 58.8506 31.037 58.8841 31.1813 58.8762C31.3263 58.8659 31.465 58.8129 31.58 58.7239C31.695 58.6349 31.7811 58.514 31.8275 58.3762L34.5963 50.3762C34.6601 50.1909 34.648 49.9878 34.5625 49.8114C34.477 49.635 34.3251 49.4996 34.14 49.435Z" fill="#E26D48"/>
<path d="M6.15114 16.2812L9.86489 16.8162L16.0561 23.0087L16.5911 26.72C16.6112 26.8559 16.6685 26.9836 16.7568 27.0888C16.8451 27.1941 16.9608 27.2728 17.0911 27.3162C17.2217 27.3586 17.3613 27.3643 17.4949 27.3328C17.6285 27.3013 17.7508 27.2337 17.8486 27.1375L21.9674 23.0125C22.0479 22.9314 22.1085 22.8328 22.1445 22.7243C22.1805 22.6159 22.1909 22.5006 22.1749 22.3875L21.6586 18.7987L26.3961 14.0612C28.3224 12.1337 30.8961 7.62746 29.5899 3.74496C29.5535 3.63663 29.4925 3.53823 29.4115 3.45754C29.3306 3.37684 29.2321 3.31605 29.1236 3.27996C28.3978 3.04085 27.6378 2.9222 26.8736 2.92871C23.6236 2.92871 20.3674 4.91496 18.8011 6.47871L14.0661 11.215L10.4774 10.6975C10.4422 10.6925 10.4067 10.69 10.3711 10.69C10.175 10.6908 9.98698 10.7684 9.84739 10.9062L5.72864 15.025C5.63183 15.1222 5.56392 15.2445 5.53249 15.3781C5.50105 15.5117 5.50733 15.6514 5.55061 15.7816C5.5939 15.9119 5.67249 16.0275 5.77764 16.1158C5.88279 16.204 6.01036 16.2612 6.14614 16.2812H6.15114ZM17.8449 25.0475L17.5386 22.9225L20.3499 20.1125L20.6561 22.2375L17.8449 25.0475ZM14.8574 12.5225L19.8511 7.52246C21.5874 5.79246 25.2836 3.81746 28.2911 4.57621C29.0599 7.59246 27.0774 11.2837 25.3461 13.0162L20.3461 18.0162L16.7486 21.6112L11.2611 16.125L14.8574 12.5225ZM10.6386 12.215L12.7636 12.5212L10.3736 14.9125L9.95114 15.335L7.82614 15.0275L10.6386 12.215Z" fill="#1F3338"/>
<path d="M3.18779 24.225L5.18779 24.8962L3.44404 28.4375C3.37567 28.5763 3.35253 28.733 3.37786 28.8856C3.4032 29.0383 3.47573 29.1791 3.58528 29.2884C3.69482 29.3976 3.83585 29.4698 3.98855 29.4948C4.14124 29.5197 4.29792 29.4962 4.43654 29.4275L7.97779 27.685L8.65029 29.685C8.6968 29.8225 8.78277 29.9432 8.89748 30.0321C9.01219 30.121 9.15055 30.1742 9.29529 30.185C9.441 30.1989 9.58749 30.168 9.71523 30.0966C9.84297 30.0251 9.9459 29.9164 10.0103 29.785L11.5103 26.8637L12.3853 28.58C12.4526 28.7082 12.5555 28.8142 12.6818 28.8852C12.808 28.9561 12.952 28.9891 13.0965 28.98C13.2418 28.9698 13.3808 28.917 13.496 28.828C13.6112 28.739 13.6975 28.6179 13.744 28.48L15.264 24.0875C15.3282 23.902 15.316 23.6986 15.2302 23.5221C15.1444 23.3456 14.992 23.2104 14.8065 23.1462C14.6211 23.0821 14.4177 23.0942 14.2412 23.18C14.0646 23.2658 13.9294 23.4182 13.8653 23.6037L12.9115 26.3612L12.1615 24.9012C12.0995 24.7799 12.0051 24.6781 11.8889 24.607C11.7727 24.536 11.639 24.4983 11.5028 24.4983C11.3665 24.4983 11.2329 24.536 11.1167 24.607C11.0005 24.6781 10.9061 24.7799 10.844 24.9012L9.49154 27.5412L9.11029 26.4037C9.07646 26.3039 9.0217 26.2124 8.94969 26.1353C8.87768 26.0583 8.79006 25.9976 8.69269 25.9571C8.59532 25.9166 8.49044 25.8974 8.38505 25.9007C8.27966 25.904 8.17619 25.9297 8.08154 25.9762L5.73154 27.1325L6.88904 24.7837C6.93526 24.6889 6.96073 24.5853 6.96376 24.4798C6.9668 24.3744 6.94732 24.2695 6.90663 24.1721C6.86595 24.0748 6.80498 23.9872 6.72781 23.9153C6.65063 23.8434 6.559 23.7887 6.45904 23.755L5.32279 23.3725L7.96404 22.0212C8.08538 21.9594 8.18725 21.8651 8.2584 21.749C8.32954 21.6328 8.3672 21.4993 8.3672 21.3631C8.3672 21.2269 8.32954 21.0933 8.2584 20.9772C8.18725 20.8611 8.08538 20.7668 7.96404 20.705L6.50529 19.955L9.26404 19.0012C9.42995 18.9443 9.57026 18.8304 9.65996 18.6797C9.74965 18.529 9.78291 18.3513 9.75378 18.1783C9.72465 18.0054 9.63505 17.8484 9.50093 17.7354C9.36682 17.6223 9.19693 17.5606 9.02154 17.5612C8.93893 17.5609 8.85689 17.5748 8.77904 17.6025L4.38404 19.125C4.24706 19.1722 4.12701 19.2588 4.03883 19.3738C3.95064 19.4887 3.89822 19.6271 3.8881 19.7717C3.87797 19.9162 3.91058 20.0606 3.98188 20.1867C4.05317 20.3129 4.15999 20.4153 4.28904 20.4812L5.99904 21.375L3.07904 22.875C2.94901 22.941 2.84143 23.0441 2.76988 23.1712C2.69832 23.2983 2.66599 23.4437 2.67695 23.5891C2.68791 23.7346 2.74168 23.8735 2.83147 23.9884C2.92127 24.1034 3.04307 24.1892 3.18154 24.235L3.18779 24.225Z" fill="#E26D48"/>
</svg>
