<svg width="16" height="16" viewBox="0 0 16 16" fill="none" xmlns="http://www.w3.org/2000/svg">
<path fill-rule="evenodd" clip-rule="evenodd" d="M8.00033 13.3337C10.9458 13.3337 13.3337 10.9458 13.3337 8.00033C13.3337 5.05481 10.9458 2.66699 8.00033 2.66699C5.05481 2.66699 2.66699 5.05481 2.66699 8.00033C2.66699 10.9458 5.05481 13.3337 8.00033 13.3337Z" fill="#243B41"/>
<path opacity="0.3" fill-rule="evenodd" clip-rule="evenodd" d="M8 16C12.4183 16 16 12.4183 16 8C16 3.58172 12.4183 0 8 0C3.58172 0 0 3.58172 0 8C0 12.4183 3.58172 16 8 16Z" fill="#243B41"/>
<path d="M10.1756 5.5492C10.4244 5.27778 10.8461 5.25945 11.1175 5.50824C11.3889 5.75704 11.4072 6.17875 11.1584 6.45016L7.49178 10.4502C7.21905 10.7477 6.74658 10.7365 6.48819 10.4265L4.82153 8.42647C4.58582 8.14362 4.62403 7.72324 4.90689 7.48753C5.18974 7.25182 5.61011 7.29004 5.84582 7.57289L7.02425 8.987L10.1756 5.5492Z" fill="white"/>
</svg>
