<svg width="62" height="62" viewBox="0 0 62 62" fill="none" xmlns="http://www.w3.org/2000/svg">
<path d="M57.214 45.685L47 42.279V40.207C49.21 38.762 50.864 36.544 51.589 33.94C54.066 33.645 56 31.555 56 29V21C56 12.729 49.271 6 41 6C34.056 6 28.216 10.749 26.515 17.166C26.337 16.965 26.169 16.755 25.979 16.565L20.305 10.891L24.441 5.102C24.807 4.592 25 3.989 25 3.359V3C25 1.346 23.654 0 22 0C20.67 0 19.964 0.808 19.496 1.342C19.06 1.839 18.886 2 18.497 2C18.107 2 17.934 1.839 17.497 1.341C17.029 0.807 16.323 0 14.994 0C13.666 0 12.96 0.808 12.492 1.342C12.058 1.839 11.884 2 11.496 2C11.108 2 10.935 1.839 10.501 1.342C10.034 0.808 9.328 0 8 0C6.346 0 5 1.346 5 3V3.359C5 3.989 5.193 4.591 5.559 5.102L9.695 10.891L4.021 16.565C1.428 19.158 0 22.605 0 26.272C0 33.842 6.158 40 13.728 40H16.273C21.207 40 25.736 37.333 28.168 33.112C28.82 33.563 29.588 33.842 30.412 33.94C31.136 36.545 32.791 38.762 35.001 40.207V42.279L24.787 45.684C21.924 46.638 20 49.307 20 52.324V62H62V52.324C62 49.307 60.076 46.638 57.214 45.685ZM51.958 31.829C51.979 31.554 52 31.28 52 31V26.184C53.161 26.598 54 27.698 54 29C54 30.317 53.141 31.427 51.958 31.829ZM41 8C48.168 8 54 13.832 54 21V25.026C53.416 24.584 52.743 24.253 52 24.102V22H49C46.183 22 43.491 20.654 41.8 18.399L41 17.334L40.2 18.399C38.509 20.654 35.817 22 33 22H30V24.101C29.257 24.253 28.584 24.583 28 25.025V21C28 13.832 33.832 8 41 8ZM7 3.359V3C7 2.448 7.448 2 8 2C8.388 2 8.561 2.161 8.995 2.658C9.462 3.192 10.168 4 11.496 4C12.824 4 13.53 3.192 13.998 2.658C14.433 2.161 14.606 2 14.994 2C15.383 2 15.556 2.161 15.993 2.658C16.461 3.192 17.167 4 18.497 4C19.826 4 20.532 3.193 21 2.659C21.437 2.161 21.61 2 22 2C22.552 2 23 2.448 23 3V3.359C23 3.569 22.936 3.77 22.814 3.94L18.486 10H11.514L7.186 3.94C7.064 3.771 7 3.569 7 3.359ZM16.272 38H13.727C7.261 38 2 32.739 2 26.272C2 23.139 3.22 20.194 5.435 17.979L11.414 12H18.586L24.565 17.979C25.127 18.541 25.622 19.169 26.059 19.833C26.029 20.219 26 20.606 26 21V29C26 29.942 26.277 30.814 26.732 31.567C24.743 35.489 20.698 38 16.272 38ZM28 29C28 27.698 28.839 26.598 30 26.184V31C30 31.28 30.021 31.554 30.042 31.829C28.859 31.427 28 30.317 28 29ZM32 31V24H33C36.028 24 38.937 22.729 41 20.548C43.063 22.729 45.972 24 49 24H50V31C50 35.963 45.963 40 41 40C36.037 40 32 35.963 32 31ZM41 42C42.412 42 43.758 41.723 45 41.236V42.586L41 46.586L37 42.586V41.236C38.242 41.723 39.588 42 41 42ZM50 56H48C45.586 56 43.566 57.721 43.101 60H38.899C38.434 57.721 36.415 56 34 56H32V50H50V56ZM22 52.324C22 50.169 23.374 48.262 25.419 47.581L35.73 44.144L39.586 48H30V56H28V52H26V58H34C35.302 58 36.402 58.839 36.816 60H22V52.324ZM60 60H45.184C45.598 58.839 46.698 58 48 58H56V52H54V56H52V48H42.414L46.27 44.144L56.581 47.581C58.626 48.263 60 50.169 60 52.324V60Z" fill="#1F3338"/>
</svg>
