<svg width="64" height="64" viewBox="0 0 64 64" fill="none" xmlns="http://www.w3.org/2000/svg">
<path d="M37.7 8.46196L37.6491 8.64801L37.8161 8.74446L49.2296 15.3337L49.3967 15.4302L49.5324 15.293C50.6474 14.1657 52.1504 13.5372 53.7359 13.5372C57.0002 13.5372 59.6458 16.1835 59.6458 19.4471C59.6458 22.1364 57.8274 24.4876 55.2359 25.1656L55.0491 25.2144V25.4075V38.586V38.779L55.2359 38.8279C57.8274 39.5059 59.6458 41.8571 59.6458 44.5464C59.6458 47.8099 57.0002 50.4563 53.7359 50.4563C52.1504 50.4563 50.6474 49.8277 49.5324 48.7004L49.3967 48.5633L49.2296 48.6597L37.8161 55.249L37.6491 55.3455L37.7 55.5315C37.8363 56.0296 37.9096 56.554 37.9096 57.096C37.9096 60.3595 35.2632 63.0052 31.9997 63.0052C28.7361 63.0052 26.0897 60.3595 26.0897 57.096C26.0897 56.554 26.163 56.0297 26.2993 55.5315L26.3503 55.3455L26.1832 55.249L14.7697 48.6597L14.6026 48.5633L14.467 48.7004C13.352 49.8277 11.849 50.4563 10.2634 50.4563C6.99917 50.4563 4.35352 47.8099 4.35352 44.5464C4.35352 41.8571 6.17192 39.5059 8.76349 38.8279L8.95021 38.779V38.586V25.4075V25.2144L8.76349 25.1656C6.17192 24.4876 4.35352 22.1364 4.35352 19.4471C4.35352 16.1835 6.99917 13.5372 10.2634 13.5372C11.849 13.5372 13.352 14.1657 14.467 15.293L14.6026 15.4302L14.7697 15.3337L26.1832 8.74446L26.3503 8.64802L26.2993 8.46196C26.163 7.96381 26.0897 7.43947 26.0897 6.89745C26.0897 3.63396 28.7361 0.988281 31.9997 0.988281C35.2632 0.988281 37.9096 3.63396 37.9096 6.89745C37.9096 7.43947 37.8363 7.96381 37.7 8.46196ZM36.5059 11.0116L36.3389 10.9151L36.2032 11.0523C35.089 12.1788 33.5852 12.8074 31.9997 12.8074C30.4141 12.8074 28.9103 12.1788 27.7962 11.0523L27.6605 10.9151L27.4934 11.0116L16.0799 17.6008L15.9129 17.6973L15.9638 17.8833C16.1001 18.3815 16.1734 18.9058 16.1734 19.4471C16.1734 22.1364 14.355 24.4876 11.7627 25.1656L11.5759 25.2144V25.4075V38.586V38.779L11.7627 38.8279C14.355 39.5059 16.1734 41.8571 16.1734 44.5464C16.1734 45.0876 16.1001 45.612 15.9638 46.1101L15.9129 46.2962L16.0799 46.3926L27.4934 52.9819L27.6605 53.0784L27.7962 52.9412C28.9103 51.8147 30.4141 51.1861 31.9997 51.1861C33.5852 51.1861 35.089 51.8147 36.2032 52.9412L36.3389 53.0784L36.5059 52.9819L47.9194 46.3926L48.0865 46.2962L48.0356 46.1101C47.8993 45.612 47.826 45.0876 47.826 44.5464C47.826 41.8571 49.6444 39.5059 52.2367 38.8279L52.4234 38.779V38.586V25.4075V25.2144L52.2367 25.1656C49.6444 24.4876 47.826 22.1364 47.826 19.4471C47.826 18.9058 47.8993 18.3815 48.0356 17.8833L48.0865 17.6973L47.9194 17.6008L36.5059 11.0116ZM25.6623 43.2764V43.5264H25.9123H38.087H38.337V43.2764V40.2762C38.337 36.7933 35.4827 33.9381 31.9997 33.9381C28.5167 33.9381 25.6623 36.7925 25.6623 40.2762V43.2764ZM31.9997 17.8413C35.4303 17.8413 38.2112 20.6223 38.2112 24.0529C38.2112 27.4835 35.4302 30.2651 31.9997 30.2651C28.5691 30.2651 25.7881 27.4835 25.7881 24.0529C25.7881 20.6223 28.5691 17.8413 31.9997 17.8413ZM31.9997 20.467C30.0186 20.467 28.4138 22.0727 28.4138 24.0529C28.4138 26.0338 30.0187 27.6387 31.9997 27.6387C33.9807 27.6387 35.5855 26.0338 35.5855 24.0529C35.5855 22.0727 33.9807 20.467 31.9997 20.467ZM31.9997 31.3124C36.9322 31.3124 40.9627 35.3429 40.9627 40.2762V44.8397C40.9627 45.5642 40.3754 46.1521 39.6502 46.1521H24.3491C23.624 46.1521 23.0366 45.5642 23.0366 44.8397V40.2762C23.0366 35.3436 27.0671 31.3124 31.9997 31.3124ZM10.2634 16.1629C8.44947 16.1629 6.97921 17.634 6.97921 19.4471C6.97921 21.261 8.44951 22.7313 10.2634 22.7313C12.0774 22.7313 13.5477 21.261 13.5477 19.4471C13.5477 17.6332 12.0774 16.1629 10.2634 16.1629ZM10.2634 41.2621C8.44951 41.2621 6.97921 42.7324 6.97921 44.5464C6.97921 46.3595 8.44947 47.8306 10.2634 47.8306C12.0774 47.8306 13.5477 46.3603 13.5477 44.5464C13.5477 42.7324 12.0774 41.2621 10.2634 41.2621ZM31.9997 53.8118C30.1857 53.8118 28.7154 55.2821 28.7154 57.096C28.7154 58.9092 30.1858 60.3795 31.9997 60.3795C33.8136 60.3795 35.2839 58.9092 35.2839 57.096C35.2839 55.2821 33.8136 53.8118 31.9997 53.8118ZM53.7359 41.2621C51.922 41.2621 50.4517 42.7324 50.4517 44.5464C50.4517 46.3603 51.922 47.8306 53.7359 47.8306C55.5499 47.8306 57.0201 46.3595 57.0201 44.5464C57.0201 42.7324 55.5498 41.2621 53.7359 41.2621ZM53.7359 16.1629C51.922 16.1629 50.4517 17.6332 50.4517 19.4471C50.4517 21.261 51.922 22.7313 53.7359 22.7313C55.5498 22.7313 57.0201 21.261 57.0201 19.4471C57.0201 17.634 55.5499 16.1629 53.7359 16.1629ZM31.9997 3.61398C30.1858 3.61398 28.7154 5.08424 28.7154 6.89745C28.7154 8.71137 30.1857 10.1817 31.9997 10.1817C33.8136 10.1817 35.2839 8.71138 35.2839 6.89745C35.2839 5.08344 33.8135 3.61398 31.9997 3.61398Z" fill="black" stroke="#FAFAFA" stroke-width="0.5"/>
<circle cx="32" cy="7" r="5.25" fill="#FAFAFA" stroke="#E26D48" stroke-width="1.5"/>
<circle cx="32" cy="57" r="5.25" fill="#FAFAFA" stroke="#E26D48" stroke-width="1.5"/>
<circle cx="53.5" cy="44.5" r="5.25" fill="#FAFAFA" stroke="#E26D48" stroke-width="1.5"/>
<circle cx="10" cy="44.5" r="5.25" fill="#FAFAFA" stroke="#E26D48" stroke-width="1.5"/>
<circle cx="54" cy="19.5" r="5.25" fill="#FAFAFA" stroke="#E26D48" stroke-width="1.5"/>
<circle cx="10.5" cy="19.5" r="5.25" fill="#FAFAFA" stroke="#E26D48" stroke-width="1.5"/>
</svg>
