<svg width="24" height="24" viewBox="0 0 24 24" fill="none" xmlns="http://www.w3.org/2000/svg">
<circle cx="12" cy="12" r="11.5" fill="white" stroke="#0F0F0F"/>
<path d="M10.2427 15.7916L9.62135 16.3353C8.44977 17.3604 6.55026 17.3604 5.37868 16.3353C4.2071 15.3101 4.2071 13.6481 5.37868 12.6229L8.56068 9.83809C9.6671 8.86779 11.4404 8.80568 12.632 9.69549C13.8235 10.5853 14.032 12.1275 13.1107 13.236" stroke="black" stroke-width="1.5" stroke-linecap="round" stroke-linejoin="round"/>
<path d="M13.8789 8.24736L14.3789 7.80986C15.5505 6.78473 17.45 6.78473 18.6216 7.80986C19.7931 8.835 19.7931 10.4971 18.6216 11.5222L15.4396 14.3064C14.3329 15.2763 12.5598 15.3381 11.3686 14.4482C10.1774 13.5583 9.96903 12.0164 10.8902 10.9079" stroke="black" stroke-width="1.5" stroke-linecap="round" stroke-linejoin="round"/>
</svg>
