<svg width="122" height="28" viewBox="0 0 122 28" fill="none" xmlns="http://www.w3.org/2000/svg">
<path d="M121.839 20.4357C120.507 20.4357 119.276 20.5015 118.057 20.4046C117.54 20.3637 116.942 20.0928 116.568 19.7326C115.296 18.5072 114.107 17.1959 112.739 15.7627C113.062 15.494 113.494 15.1739 113.879 14.804C114.643 14.0691 115.385 13.3112 116.127 12.5534C116.774 11.8919 117.538 11.4769 118.472 11.4589C119.56 11.4381 120.649 11.4541 121.927 11.4541C120.322 13.0078 118.84 14.4438 117.297 15.9373C118.866 17.491 120.323 18.9346 121.839 20.4357Z" fill="#E26D48"/>
<path d="M115.49 26.8272C113.975 25.2964 112.53 23.8368 110.994 22.2845C109.483 23.8264 108.039 25.3005 106.581 26.7878C106.581 25.412 106.528 24.0917 106.611 22.7797C106.639 22.342 106.931 21.8425 107.249 21.5149C108.469 20.259 109.747 19.0613 111.059 17.7881C111.547 18.2681 112.091 18.8001 112.631 19.3363C113.259 19.959 113.891 20.5783 114.507 21.2121C115.089 21.8099 115.475 22.5117 115.486 23.3679C115.5 24.4803 115.49 25.5935 115.49 26.8272Z" fill="#E26D48"/>
<path d="M111.048 14.1348C109.742 12.8658 108.418 11.6612 107.207 10.3519C106.823 9.93839 106.602 9.25815 106.551 8.67835C106.451 7.53677 106.521 6.37995 106.521 5.15247C108.004 6.67158 109.442 8.14497 110.993 9.73474C112.561 8.12627 114.005 6.64456 115.462 5.15039C115.462 6.44091 115.55 7.69817 115.424 8.93396C115.364 9.51445 114.993 10.1448 114.587 10.593C113.501 11.7907 112.319 12.9025 111.174 14.0468C111.122 14.0974 111.053 14.1314 111.048 14.1348Z" fill="#E26D48"/>
<path d="M109.238 16.0469C107.895 17.3422 106.584 18.7048 105.154 19.9281C104.707 20.3105 103.951 20.4206 103.321 20.4754C102.309 20.5619 101.286 20.4989 100.235 20.4989C101.735 19.0221 103.203 17.5764 104.747 16.0559C103.131 14.489 101.658 13.062 100.186 11.6343C100.211 11.5706 100.237 11.5069 100.262 11.4431C100.516 11.4431 100.77 11.4411 101.024 11.4438C101.891 11.4514 102.758 11.4542 103.625 11.4715C104.392 11.4868 105.06 11.7853 105.6 12.3111C106.785 13.4651 107.944 14.6455 109.112 15.8169C109.15 15.8543 109.167 15.9139 109.238 16.0469Z" fill="#E26D48"/>
<path d="M20.3406 10.1899C20.3406 10.3583 20.2023 10.537 19.9464 10.537C19.3122 10.537 17.6018 11.1002 15.4142 16.3176L11.0606 26.204C10.9167 26.5351 10.5882 26.7491 10.2251 26.7491H8.03129C7.69309 26.7491 7.395 26.5344 7.28919 26.2158L3.13882 13.7124C2.05922 10.537 1.95063 10.537 0.626196 10.537C0.378599 10.537 0.245117 10.3583 0.245117 10.1899C0.245117 10.0223 0.378599 9.84359 0.626196 9.84359H8.75471C9.01614 9.84359 9.15792 10.0223 9.15792 10.1899C9.15792 10.3583 9.01684 10.537 8.75471 10.537C8.17445 10.537 7.83695 10.6388 7.66128 10.8681C7.41575 11.1874 7.42959 11.8393 7.70208 12.8596L11.0336 23.8869L14.5684 15.893C15.5581 13.3341 15.7863 11.8774 15.3022 11.1777C15.0062 10.749 14.399 10.5578 13.4272 10.5661C13.1527 10.5661 13.0061 10.3784 13.0061 10.2017C13.0061 10.0265 13.1513 9.84082 13.4203 9.84082L19.9457 9.84359C20.2023 9.84359 20.3406 10.0223 20.3406 10.1899Z" fill="#243B41"/>
<path d="M34.9803 20.3115L34.889 20.5137C33.7776 22.9576 31.8072 26.2826 27.5469 26.9386C27.1008 27.0072 26.6588 27.0411 26.2224 27.0411C24.5224 27.0411 22.9193 26.5257 21.6087 25.5414C19.8817 24.2433 18.7682 22.2538 18.3899 19.7871C17.6035 14.6638 20.6446 10.3891 25.6214 9.62297C27.1582 9.38537 29.3865 9.64168 31.0319 11.0714C32.2906 12.1645 32.9483 13.764 32.9345 15.698L32.9891 15.8622L32.7893 15.9315L23.2699 19.0147C23.2941 19.1533 23.3197 19.2904 23.3467 19.4248C24.131 23.2388 26.0315 24.8875 29.1555 24.4615C31.1903 24.1844 32.7222 22.8627 34.122 20.175L34.2092 20.0074L34.9803 20.3115ZM25.8794 10.3926C25.7404 10.3926 25.5979 10.4016 25.4499 10.421C24.9817 10.4805 24.5674 10.7424 24.2181 11.1982C23.0811 12.682 22.8702 15.8172 23.1517 18.2119L28.706 16.4136C28.7724 15.4958 28.8858 12.3453 27.4964 11.0098C27.0689 10.5983 26.5267 10.3919 25.8794 10.3926Z" fill="#243B41"/>
<path d="M51.3167 21.3813C51.3167 23.8917 49.1036 26.8225 42.8666 26.8232C42.61 26.8232 42.35 26.8177 42.0892 26.8073C42.0886 26.8073 42.0879 26.8073 42.0879 26.8073C40.8028 26.8073 38.9597 26.5517 38.4251 26.4727C38.4279 26.4748 38.367 26.4699 38.2798 26.4623C36.6456 26.3203 36.5017 26.5427 36.4913 26.5683L36.4602 26.6736L36.3558 26.7082C36.2271 26.7505 36.1275 26.7456 36.0529 26.6909L35.9657 26.6279L35.9595 26.508C35.9595 25.6331 35.6012 23.6028 35.429 22.6275C35.3841 22.3719 35.3488 22.1765 35.3343 22.0768L35.3184 21.9736L35.3937 21.8939C35.4415 21.8447 35.5086 21.8198 35.5929 21.8198C35.7271 21.8198 35.7949 21.8849 35.8267 21.9327C36.0439 22.2541 38.0592 25.0928 42.0014 25.8534C42.4676 25.9352 42.9475 25.9767 43.4227 25.9767C45.972 25.9767 47.5564 25.0381 47.5564 23.528C47.5564 21.9445 45.7403 21.2587 43.1751 20.4635L41.6148 19.982C39.3214 19.2512 35.4913 18.03 35.4913 14.6724C35.4913 12.0547 37.9672 9.41337 43.4981 9.41337C44.4746 9.41337 45.4982 9.4958 46.5412 9.65859C46.5356 9.65582 46.5972 9.66067 46.685 9.66829C48.3151 9.80891 48.4624 9.58862 48.4735 9.56299L48.5046 9.45909L48.6063 9.42376C48.7349 9.37943 48.8345 9.38358 48.9113 9.43831L48.9998 9.50134L49.0061 9.62257C49.0061 10.5016 49.365 12.5375 49.5372 13.5156C49.5808 13.7643 49.614 13.9534 49.6292 14.0511C49.6313 14.1737 49.5628 14.3087 49.3726 14.3087C49.2377 14.3087 49.1693 14.2443 49.1375 14.1972C48.2709 12.9115 45.6158 10.2578 42.9427 10.2578C40.7351 10.2578 39.2522 11.1562 39.2522 12.4938C39.2522 14.1217 41.4412 14.8033 43.5589 15.4628L45.3647 16.0052C47.5903 16.7381 51.3167 17.9628 51.3167 21.3813Z" fill="#243B41"/>
<path d="M62.7366 25.2152L62.5706 25.3329C61.2614 26.2646 59.7488 27.1277 57.5619 27.1277C54.5818 27.1277 53.0063 25.5705 53.0063 22.6237L52.998 10.2707L51.5262 10.2596C51.4301 10.227 51.2676 10.1072 51.2676 9.8682C51.2676 9.65831 51.3928 9.54055 51.4889 9.49275L57.4866 5.1377H57.8531L57.8538 9.46574L62.0443 9.48167C62.139 9.52046 62.2981 9.64792 62.2981 9.87928C62.2981 10.1501 62.0858 10.2707 62.0609 10.2838L62.0152 10.3081L57.8531 10.3309L57.8628 22.7761C57.8628 23.9724 58.0786 25.3454 59.7654 25.3454C60.4584 25.3454 61.2469 25.1002 62.1065 24.618L62.276 24.5224L62.7366 25.2152Z" fill="#243B41"/>
<path d="M78.2791 20.3115L78.1878 20.5137C77.0764 22.9576 75.106 26.2826 70.8457 26.9386C70.3996 27.0072 69.9576 27.0411 69.5212 27.0411C67.8213 27.0411 66.2181 26.5257 64.9075 25.5414C63.1805 24.2433 62.067 22.2538 61.6887 19.7871C60.9024 14.6638 63.9434 10.3891 68.9202 9.62297C70.457 9.38537 72.6854 9.64168 74.3307 11.0714C75.5895 12.1645 76.2472 13.764 76.2333 15.698L76.288 15.8622L76.0874 15.9315L66.5681 19.0147C66.5923 19.1533 66.6179 19.2904 66.6448 19.4248C67.4291 23.2388 69.3297 24.8875 72.4537 24.4615C74.4884 24.1844 76.0203 22.8627 77.4202 20.175L77.5073 20.0074L78.2791 20.3115ZM69.1782 10.3926C69.0392 10.3926 68.8967 10.4016 68.7487 10.421C68.2805 10.4805 67.8662 10.7424 67.517 11.1982C66.3799 12.682 66.169 15.8172 66.4505 18.2119L72.0048 16.4136C72.0712 15.4958 72.1846 12.3453 70.7952 11.0098C70.3678 10.5983 69.8256 10.3919 69.1782 10.3926Z" fill="#243B41"/>
<path d="M97.2975 26.3987C97.2975 26.5698 97.1626 26.7513 96.9116 26.7513H89.2852C89.0203 26.7513 88.8764 26.5698 88.8764 26.3987C88.8764 26.2283 89.0196 26.0462 89.2852 26.0462C90.102 26.0462 90.4007 25.9326 90.5577 25.2606C90.6248 24.9842 90.6649 24.6143 90.6871 24.0712C89.0002 25.9707 87.0374 26.9335 84.8457 26.9335C81.0315 26.9335 78.4697 24.0373 78.4697 19.7259C78.4697 12.9671 83.228 9.43086 87.9282 9.43086C88.875 9.43086 89.808 9.62966 90.7071 10.0224V6.23747C90.7071 4.93033 90.584 4.26949 90.2956 4.02565C90.0273 3.79914 89.5258 3.86495 88.7893 3.99033C88.5216 4.02288 88.3639 3.8691 88.3446 3.70285C88.3238 3.52968 88.4511 3.32533 88.7277 3.29C90.1206 3.05448 92.5088 1.75703 93.7924 1.06017C94.0054 0.944487 94.1928 0.841967 94.3478 0.760227C94.5269 0.654936 94.8955 0.773389 95.0428 0.857899C95.2213 0.959727 95.2586 1.08372 95.2586 1.16962V22.7932C95.2586 23.2338 95.2621 23.6175 95.2773 23.9521C95.3617 26.0462 95.7213 26.0462 96.9116 26.0462C97.1619 26.0462 97.2975 26.2276 97.2975 26.3987ZM87.2726 24.969C88.505 24.969 89.6296 24.3158 90.7064 22.9733L90.7071 22.7939V12.839C90.214 12.0389 88.9241 10.3106 86.9772 10.3106C84.3007 10.3106 83.0537 12.7074 83.0537 17.8528C83.0537 22.2425 84.67 24.969 87.2726 24.969Z" fill="#243B41"/>
</svg>
