<svg width="64" height="64" viewBox="0 0 64 64" fill="none" xmlns="http://www.w3.org/2000/svg">
<path d="M43 46H3C2.448 46 2 45.552 2 45V17C2 16.448 2.448 16 3 16H37C37.552 16 38 16.448 38 17C38 17.552 37.552 18 37 18H4V44H43C43.552 44 44 44.448 44 45C44 45.552 43.552 46 43 46Z" fill="#1F3338"/>
<path d="M38.9993 34C38.9993 31.73 37.4573 30.076 34.4173 29.084L34.1913 29.01C33.0513 28.638 31.9993 28.138 31.9993 27C31.9993 25.822 32.8213 25 33.9993 25C35.4073 25 36.3473 25.756 36.3553 25.764C36.7813 26.12 37.4093 26.064 37.7653 25.644C38.1213 25.22 38.0653 24.592 37.6433 24.236C37.5933 24.194 36.5733 23.362 34.9813 23.092C34.9833 23.06 34.9993 23.034 34.9993 23V22C34.9993 21.448 34.5513 21 33.9993 21C33.4473 21 32.9993 21.448 32.9993 22V23C32.9993 23.042 33.0193 23.08 33.0253 23.124C31.2493 23.538 29.9993 25.06 29.9993 27C29.9993 29.748 32.6873 30.626 33.5693 30.91L33.7953 30.984C35.9533 31.688 36.9993 32.676 36.9993 34C36.9993 35.71 35.7093 37 33.9993 37C32.1433 37 31.0813 35.776 30.7993 35.4C30.4673 34.956 29.8393 34.87 29.3993 35.198C28.9553 35.53 28.8653 36.156 29.1973 36.598C29.5673 37.092 30.8353 38.56 33.0133 38.918C33.0113 38.946 32.9973 38.97 32.9973 38.998V40C32.9973 40.552 33.4453 41 33.9973 41C34.5493 41 34.9973 40.552 34.9973 40V39C34.9973 38.966 34.9813 38.938 34.9773 38.904C37.2973 38.46 38.9993 36.466 38.9993 34Z" fill="#E26D48"/>
<path d="M43 46C42.448 46 42 45.552 42 45C42 44.448 42.448 44 43 44C45.758 44 48 41.758 48 39V33C48 32.448 48.448 32 49 32C49.552 32 50 32.448 50 33V39C50 42.86 46.86 46 43 46Z" fill="#1F3338"/>
<path d="M49 40C48.448 40 48 39.552 48 39C48 36.242 45.758 34 43 34H41C40.448 34 40 33.552 40 33V5C40 4.448 40.448 4 41 4H43C46.86 4 50 7.14 50 11V39C50 39.552 49.552 40 49 40ZM42 32H43C44.958 32 46.728 32.806 48 34.106V11C48 8.242 45.758 6 43 6H42V32Z" fill="#1F3338"/>
<path d="M61 62H3C2.448 62 2 61.552 2 61C2 60.448 2.448 60 3 60H61C61.552 60 62 60.448 62 61C62 61.552 61.552 62 61 62Z" fill="#1F3338"/>
<path d="M61 58H3C2.448 58 2 57.552 2 57C2 56.448 2.448 56 3 56H61C61.552 56 62 56.448 62 57C62 57.552 61.552 58 61 58Z" fill="#1F3338"/>
<path d="M61 54H3C2.448 54 2 53.552 2 53C2 52.448 2.448 52 3 52H61C61.552 52 62 52.448 62 53C62 53.552 61.552 54 61 54Z" fill="#1F3338"/>
<path d="M61 50H3C2.448 50 2 49.552 2 49C2 48.448 2.448 48 3 48H60V22H53C52.448 22 52 21.552 52 21C52 20.448 52.448 20 53 20H61C61.552 20 62 20.448 62 21V49C62 49.552 61.552 50 61 50Z" fill="#1F3338"/>
</svg>
