<svg width="24" height="24" viewBox="0 0 24 24" fill="none" xmlns="http://www.w3.org/2000/svg">
<circle cx="12.3125" cy="11.6875" r="11.1875" fill="#243B41" stroke="white"/>
<g clip-path="url(#clip0)">
<path d="M18.4981 7.93564C18.0545 8.13221 17.578 8.26502 17.077 8.32505C17.5939 8.01575 17.9806 7.52895 18.165 6.95549C17.6794 7.24395 17.1479 7.447 16.5936 7.5558C16.2208 7.15782 15.7271 6.89403 15.1891 6.80539C14.6511 6.71675 14.0989 6.80822 13.6182 7.06559C13.1375 7.32296 12.7552 7.73183 12.5307 8.22874C12.3061 8.72564 12.252 9.28276 12.3765 9.81361C11.3925 9.7642 10.4298 9.50843 9.55102 9.0629C8.67223 8.61737 7.89693 7.99204 7.27545 7.22749C7.06295 7.59405 6.94077 8.01905 6.94077 8.47167C6.94053 8.87914 7.04087 9.28036 7.23289 9.63975C7.42491 9.99914 7.70266 10.3056 8.04152 10.5319C7.64854 10.5194 7.26423 10.4132 6.92058 10.2221V10.254C6.92054 10.8255 7.11822 11.3794 7.48008 11.8217C7.84194 12.2641 8.34569 12.5676 8.90586 12.6808C8.54131 12.7794 8.1591 12.794 7.78811 12.7233C7.94615 13.215 8.25401 13.645 8.66859 13.9531C9.08316 14.2611 9.58369 14.4319 10.1001 14.4413C9.22346 15.1295 8.1408 15.5028 7.0263 15.5012C6.82887 15.5012 6.63162 15.4897 6.43555 15.4666C7.56683 16.194 8.88373 16.58 10.2287 16.5785C14.7815 16.5785 17.2704 12.8077 17.2704 9.53736C17.2704 9.43111 17.2677 9.3238 17.263 9.21755C17.7471 8.86744 18.165 8.4339 18.497 7.93724L18.4981 7.93564Z" fill="white"/>
</g>
<defs>
<clipPath id="clip0">
<rect width="12.75" height="12.75" fill="white" transform="translate(5.9375 5.3125)"/>
</clipPath>
</defs>
</svg>
