<svg width="24" height="24" viewBox="0 0 24 24" fill="none" xmlns="http://www.w3.org/2000/svg">
<circle cx="11.6875" cy="11.6875" r="11.1875" fill="#243B41" stroke="white"/>
<path d="M17.7301 7.36398L17.7306 7.36416C17.9481 7.44899 18.1424 7.58433 18.2973 7.75901C18.4522 7.93369 18.5633 8.14269 18.6216 8.36878C18.6216 8.36879 18.6216 8.36881 18.6216 8.36882L17.7301 7.36398ZM17.7301 7.36398C16.6496 6.94878 15.2502 6.74611 14.1092 6.64667C12.9819 6.54842 12.098 6.55025 12.0056 6.55044L12.0022 6.55045L12.0015 6.55044C11.92 6.55019 11.0292 6.54746 9.89144 6.6466C8.74988 6.74606 7.35035 6.94878 6.26988 7.36398L6.26988 7.36398L6.26941 7.36416C6.05189 7.44899 5.85767 7.58434 5.70276 7.75902C5.54791 7.93364 5.43678 8.14256 5.37854 8.36855C5.21615 8.99202 5.025 10.1245 5.025 11.9999C5.025 13.8753 5.21612 15.0077 5.37844 15.6312L17.7301 7.36398ZM14.2635 11.6047L14.2635 11.6047L11.2635 9.60474L11.2635 9.60474C11.1919 9.55706 11.1088 9.52968 11.0229 9.52553C10.9371 9.52138 10.8517 9.54061 10.7759 9.58118C10.7001 9.62174 10.6367 9.68212 10.5925 9.75587C10.5483 9.82961 10.525 9.91397 10.525 9.99994V13.9999C10.525 14.0859 10.5483 14.1703 10.5925 14.244C10.6367 14.3178 10.7001 14.3782 10.7759 14.4187C10.8517 14.4593 10.9371 14.4785 11.0229 14.4744C11.1088 14.4702 11.1919 14.4428 11.2635 14.3952L11.2635 14.3952L14.2635 12.3952L14.2635 12.3951C14.3285 12.3518 14.3819 12.293 14.4188 12.2241C14.4557 12.1551 14.475 12.0781 14.475 11.9999C14.475 11.9218 14.4557 11.8448 14.4188 11.7758C14.3819 11.7069 14.3285 11.6481 14.2635 11.6047ZM17.7021 15.3919L17.7019 15.3926C17.6817 15.4727 17.6427 15.5468 17.5882 15.6088C17.5338 15.6708 17.4655 15.7189 17.3889 15.7493C16.4024 16.1283 15.0673 16.317 13.9673 16.4101C13.4185 16.4565 12.9306 16.479 12.5777 16.4898C12.4012 16.4952 12.2585 16.4977 12.1588 16.4988C12.109 16.4993 12.07 16.4995 12.0428 16.4996L12.0113 16.4996C12.0054 16.4995 12.0022 16.4995 12.001 16.4995C12.0006 16.4995 12.0004 16.4995 12.0005 16.4995L12.0005 16.4994L11.9954 16.4995L11.9952 16.4995C11.9943 16.4995 11.991 16.4995 11.9845 16.4995L11.9533 16.4995C11.9264 16.4995 11.8876 16.4992 11.838 16.4987C11.7388 16.4976 11.5965 16.4951 11.4203 16.4897C11.068 16.4788 10.5806 16.4563 10.0322 16.4099C8.93268 16.3168 7.59758 16.1283 6.61108 15.7493C6.53446 15.7189 6.46613 15.6708 6.41173 15.6088C6.35722 15.5468 6.31824 15.4727 6.29802 15.3926L6.29783 15.3919C6.15172 14.8308 5.975 13.7832 5.975 11.9999C5.975 10.2168 6.15172 9.16905 6.29789 8.60797L6.2979 8.60797L6.29808 8.60725C6.31831 8.52719 6.35728 8.45308 6.41178 8.39105C6.46617 8.32912 6.53448 8.28099 6.61109 8.25061C7.59762 7.8716 8.93275 7.68298 10.0328 7.58989C10.5816 7.54345 11.0694 7.52097 11.4224 7.51016C11.5989 7.50475 11.7415 7.50227 11.8412 7.50116C11.891 7.50061 11.9301 7.5004 11.9572 7.50035L11.9887 7.50035C11.9958 7.50038 11.9992 7.50041 11.9998 7.50042L12 7.50042L12 7.50061L12.0061 7.50038C12.006 7.50038 12.0063 7.50038 12.007 7.50038C12.0103 7.50035 12.0231 7.50026 12.0467 7.5003C12.0736 7.50034 12.1124 7.50053 12.162 7.50107C12.2611 7.50216 12.4034 7.50463 12.5796 7.51003C12.9319 7.52083 13.4193 7.54333 13.9678 7.58979C15.0673 7.68293 16.4024 7.87163 17.3889 8.25062C17.4655 8.281 17.5338 8.32913 17.5882 8.39106C17.6427 8.45311 17.6817 8.52723 17.7019 8.6073L17.7021 8.60804C17.8483 9.16905 18.025 10.2168 18.025 11.9999C18.025 13.7831 17.8483 14.8308 17.7021 15.3919ZM13.1437 11.9999L11.475 13.1124V10.8875L13.1437 11.9999Z" fill="white" stroke="white" stroke-width="0.2"/>
</svg>
